<?xml version="1.0" encoding="UTF-8"?>
<svg version="1.1" xmlns="http://www.w3.org/2000/svg" width="472" height="472">
<path d="M0 0 C3.58777436 1.73240619 6.78931764 3.92615202 10.0625 6.1875 C12.01648461 7.48117599 13.97361791 8.77010657 15.93359375 10.0546875 C16.93503418 10.71307617 17.93647461 11.37146484 18.96826172 12.04980469 C58.84855369 37.7031927 98.56824656 47.22482691 145.59765625 48.234375 C146.39850647 48.2525679 147.19935669 48.2707608 148.0244751 48.289505 C151.95474401 48.37675309 155.88387361 48.44592808 159.81494141 48.4831543 C161.24512384 48.5079197 162.67530005 48.53304777 164.10546875 48.55859375 C165.36512451 48.57204834 166.62478027 48.58550293 167.92260742 48.59936523 C171 49 171 49 172.6700592 50.05377197 C174.70364962 53.02971697 174.40069607 56.06195623 174.35644531 59.5402832 C174.35848969 60.30873566 174.36053406 61.07718811 174.36264038 61.868927 C174.3656635 64.42978229 174.34707008 66.99000124 174.328125 69.55078125 C174.32505922 71.36117902 174.32318934 73.17157916 174.32244873 74.98197937 C174.31783019 78.8063544 174.30338615 82.63052075 174.28125 86.45483398 C174.25366084 91.23351446 174.24219647 96.01202807 174.23743725 100.79078007 C174.2166691 119.78725963 174.03745052 138.77542056 173.53515625 157.765625 C173.51517326 158.52877329 173.49519028 159.29192158 173.47460175 160.07819557 C171.83839578 221.02603698 167.05754462 281.7610192 121.0390625 326.24609375 C115.34962238 331.61285324 109.31912694 336.40167676 103 341 C102.35482422 341.47356934 101.70964844 341.94713867 101.04492188 342.43505859 C77.2590604 359.81659404 51.56493141 374.48009008 26.08740234 389.20361328 C22.92786171 391.04197324 19.78591226 392.90815207 16.64453125 394.77734375 C14.59673518 395.97721301 12.54857102 397.17645432 10.5 398.375 C9.56309326 398.94081787 8.62618652 399.50663574 7.66088867 400.08959961 C-0.85169697 405.01867001 -0.85169697 405.01867001 -5.80566406 404.609375 C-11.1573947 403.12318011 -15.86639752 400.10005773 -20.625 397.3125 C-21.82834807 396.62311342 -23.03246154 395.93506131 -24.23730469 395.24829102 C-27.27069149 393.51285544 -30.29123682 391.75644204 -33.30700684 389.99060059 C-34.88012682 389.07013994 -36.45606375 388.15449825 -38.03222656 387.23925781 C-43.47722344 384.07636908 -48.89465999 380.87047587 -54.29199219 377.62695312 C-56.12412974 376.52621704 -57.95817232 375.42864663 -59.79394531 374.33398438 C-84.93764777 359.33598642 -110.43324983 343.86640116 -131.55224609 323.39648438 C-132.91076272 322.08607711 -134.2925464 320.79991312 -135.67578125 319.515625 C-178.51196462 278.74463865 -180.09108842 212.91443338 -181.53515625 157.765625 C-181.55631752 156.96558233 -181.57747879 156.16553967 -181.59928131 155.34125328 C-182.09346389 136.22328334 -182.22118881 117.10587694 -182.24023438 97.98217773 C-182.245868 93.1631373 -182.27031293 88.3443588 -182.29820633 83.52540302 C-182.31673196 79.76373965 -182.3220314 76.00214361 -182.32357025 72.24043846 C-182.32658632 70.45939784 -182.33457933 68.6783581 -182.34775543 66.89736366 C-182.36471002 64.44478005 -182.3629702 61.99290069 -182.35644531 59.5402832 C-182.3656601 58.81595596 -182.37487488 58.09162872 -182.3843689 57.34535217 C-182.3601676 54.45808914 -182.32583702 52.47682809 -180.6700592 50.05377197 C-177.92375667 48.32091326 -175.3111254 48.59283389 -172.10546875 48.55859375 C-171.41442551 48.54629227 -170.72338226 48.53399078 -170.01139832 48.52131653 C-168.5180861 48.49552557 -167.0246571 48.47591557 -165.53118896 48.46179199 C-161.54740439 48.42050065 -157.56492227 48.32206224 -153.58203125 48.23046875 C-152.36864075 48.20413864 -152.36864075 48.20413864 -151.1307373 48.17727661 C-102.15938243 47.07590639 -60.82813134 35.3156599 -20.1171875 7.7265625 C-19.35567383 7.21407959 -18.59416016 6.70159668 -17.80957031 6.17358398 C-16.40337242 5.21699854 -15.00833033 4.24369384 -13.62792969 3.25024414 C-9.25962066 0.26119447 -5.33754645 -1.36307654 0 0 Z " fill="#F2A9B7" transform="translate(240,34)"/>
<path d="M0 0 C12.597088 -0.06991512 25.19412883 -0.12302018 37.7913723 -0.15543652 C43.64256076 -0.171005 49.4936152 -0.19207969 55.34472656 -0.22631836 C61.00522784 -0.2592294 66.66560127 -0.27691906 72.32619095 -0.28463173 C74.47163527 -0.29011885 76.61707365 -0.3008313 78.76246262 -0.31719017 C105.9211353 -0.51579445 134.45966723 3.1424354 154.92333984 22.80249023 C156.30263313 24.18154774 157.65198637 25.59035152 159 27 C159.75023437 27.77988281 160.50046875 28.55976563 161.2734375 29.36328125 C165.38610358 34.05109029 168.24430759 39.04839067 170.8125 44.6875 C171.2297937 45.58505005 171.2297937 45.58505005 171.65551758 46.50073242 C177.6086313 60.50859215 177.46193605 75.34441863 177.43359375 90.26953125 C177.43816808 92.40215723 177.44347732 94.53478174 177.44947815 96.66740417 C177.45836049 101.11597722 177.45604268 105.56437028 177.44604492 110.01293945 C177.43457082 115.66418836 177.45476855 121.31481091 177.48396206 126.96597767 C177.50246516 131.36484102 177.50200357 135.76355821 177.49632454 140.16245079 C177.496173 142.24368861 177.50207626 144.32493742 177.51461601 146.40613747 C177.59611688 162.14760359 176.96535759 178.57329955 169.125 192.6875 C168.77912842 193.34339111 168.43325684 193.99928223 168.0769043 194.67504883 C165.52022972 199.38993219 162.7813989 203.2186011 159 207 C158.236875 207.825 157.47375 208.65 156.6875 209.5 C144.50015245 220.83706749 129.01653895 228.9775402 112.5 231.625 C111.79230469 231.74617187 111.08460938 231.86734375 110.35546875 231.9921875 C102.24329972 233.35657425 94.41224815 234.14719453 86.1875 234.11352539 C84.76660316 234.11374443 84.76660316 234.11374443 83.31700134 234.1139679 C80.21131027 234.11327575 77.10568049 234.10551626 74 234.09765625 C71.83667026 234.09578959 69.67334009 234.09436686 67.51000977 234.09336853 C61.83505065 234.08956291 56.1601174 234.07974941 50.48516846 234.06866455 C43.66602615 234.05660288 36.84687516 234.05203888 30.02772522 234.04621124 C19.68513219 234.03653654 9.34259585 234.0173663 -1 234 C-1 215.52 -1 197.04 -1 178 C5.94675781 177.97421875 12.89351562 177.9484375 20.05078125 177.921875 C24.46683315 177.89669144 28.88281758 177.87034681 33.29882812 177.83984375 C40.29923712 177.79159911 47.29948984 177.74752034 54.30004883 177.72900391 C59.947735 177.71379586 65.59501077 177.67927634 71.24251366 177.63169098 C73.39089568 177.61691997 75.5393363 177.60896146 77.68776894 177.60811615 C94.70973612 178.16284583 94.70973612 178.16284583 109.86323547 171.50946045 C118.62465824 162.42581545 117.45922965 149.97122228 117.43359375 138.28125 C117.43816162 136.45479133 117.44346898 134.62833438 117.44947815 132.80187988 C117.45838187 128.9858499 117.45601683 125.17002951 117.44604492 121.35400391 C117.43454902 116.4818767 117.45479019 111.61047362 117.48396206 106.73844147 C117.50237073 102.97043319 117.50202249 99.20259705 117.49632454 95.43455505 C117.49617195 93.63894127 117.50216451 91.84331536 117.51461601 90.04774475 C117.92316186 75.8108258 117.92316186 75.8108258 111.65892029 63.47595215 C97.82911599 50.77842176 71.86547621 55.39119674 57 55 C57 85.69 57 116.38 57 148 C49.118 143.496 49.118 143.496 46.375 141 C45.39273438 140.11441406 45.39273438 140.11441406 44.390625 139.2109375 C42.48304254 137.44673543 40.57697594 135.68094183 38.671875 133.9140625 C38.08744629 133.37265625 37.50301758 132.83125 36.90087891 132.2734375 C35.72854515 131.18523328 34.55888657 130.09413905 33.39208984 129 C30.43293295 126.17507152 30.43293295 126.17507152 27 124 C27 123.34 27 122.68 27 122 C26.40541992 121.72760498 25.81083984 121.45520996 25.19824219 121.17456055 C23.05559444 120.02970512 21.57993363 118.87355302 19.828125 117.20703125 C18.96030396 116.38960449 18.96030396 116.38960449 18.07495117 115.55566406 C17.17160034 114.69279785 17.17160034 114.69279785 16.25 113.8125 C15.00212105 112.63584961 13.75342767 111.46006232 12.50390625 110.28515625 C11.60309326 109.43655029 11.60309326 109.43655029 10.68408203 108.57080078 C7.96662472 106.03613561 5.17058204 103.596834 2.35546875 101.171875 C1.54756181 100.47339638 0.75517746 99.75517746 0 99 C-0.09532328 95.92545239 -0.1255138 92.87340842 -0.11352539 89.79858398 C-0.11367142 88.83283447 -0.11381744 87.86708496 -0.1139679 86.87207031 C-0.11326834 83.66338901 -0.10547397 80.45476497 -0.09765625 77.24609375 C-0.09579222 75.02791882 -0.09436825 72.80974348 -0.09336853 70.59156799 C-0.08954216 64.74059929 -0.07971086 58.88965523 -0.06866455 53.03869629 C-0.05845299 47.07332696 -0.05387146 41.10795367 -0.04882812 35.14257812 C-0.03808869 23.42837456 -0.02101085 11.71418933 0 0 Z " fill="#FCFCFC" transform="translate(148,113)"/>
<path d="M0 0 C3.58777436 1.73240619 6.78931764 3.92615202 10.0625 6.1875 C12.01648461 7.48117599 13.97361791 8.77010657 15.93359375 10.0546875 C16.93503418 10.71307617 17.93647461 11.37146484 18.96826172 12.04980469 C58.84855369 37.7031927 98.56824656 47.22482691 145.59765625 48.234375 C146.39850647 48.2525679 147.19935669 48.2707608 148.0244751 48.289505 C151.95474401 48.37675309 155.88387361 48.44592808 159.81494141 48.4831543 C161.24512384 48.5079197 162.67530005 48.53304777 164.10546875 48.55859375 C165.36512451 48.57204834 166.62478027 48.58550293 167.92260742 48.59936523 C171 49 171 49 172.6700592 50.05377197 C174.70364962 53.02971697 174.40069607 56.06195623 174.35644531 59.5402832 C174.35848969 60.30873566 174.36053406 61.07718811 174.36264038 61.868927 C174.3656635 64.42978229 174.34707008 66.99000124 174.328125 69.55078125 C174.32505922 71.36117902 174.32318934 73.17157916 174.32244873 74.98197937 C174.31783019 78.8063544 174.30338615 82.63052075 174.28125 86.45483398 C174.25366084 91.23351446 174.24219647 96.01202807 174.23743725 100.79078007 C174.2166691 119.78725963 174.03745052 138.77542056 173.53515625 157.765625 C173.51517326 158.52877329 173.49519028 159.29192158 173.47460175 160.07819557 C171.83839578 221.02603698 167.05754462 281.7610192 121.0390625 326.24609375 C115.34962238 331.61285324 109.31912694 336.40167676 103 341 C102.35482422 341.47356934 101.70964844 341.94713867 101.04492188 342.43505859 C77.2590604 359.81659404 51.56493141 374.48009008 26.08740234 389.20361328 C22.92786171 391.04197324 19.78591226 392.90815207 16.64453125 394.77734375 C14.59673518 395.97721301 12.54857102 397.17645432 10.5 398.375 C9.56309326 398.94081787 8.62618652 399.50663574 7.66088867 400.08959961 C-0.85169697 405.01867001 -0.85169697 405.01867001 -5.80566406 404.609375 C-11.1573947 403.12318011 -15.86639752 400.10005773 -20.625 397.3125 C-21.82834807 396.62311342 -23.03246154 395.93506131 -24.23730469 395.24829102 C-27.27069149 393.51285544 -30.29123682 391.75644204 -33.30700684 389.99060059 C-34.88012682 389.07013994 -36.45606375 388.15449825 -38.03222656 387.23925781 C-43.47722344 384.07636908 -48.89465999 380.87047587 -54.29199219 377.62695312 C-56.12412974 376.52621704 -57.95817232 375.42864663 -59.79394531 374.33398438 C-84.93764777 359.33598642 -110.43324983 343.86640116 -131.55224609 323.39648438 C-132.91076272 322.08607711 -134.2925464 320.79991312 -135.67578125 319.515625 C-178.51196462 278.74463865 -180.09108842 212.91443338 -181.53515625 157.765625 C-181.55631752 156.96558233 -181.57747879 156.16553967 -181.59928131 155.34125328 C-182.09346389 136.22328334 -182.22118881 117.10587694 -182.24023438 97.98217773 C-182.245868 93.1631373 -182.27031293 88.3443588 -182.29820633 83.52540302 C-182.31673196 79.76373965 -182.3220314 76.00214361 -182.32357025 72.24043846 C-182.32658632 70.45939784 -182.33457933 68.6783581 -182.34775543 66.89736366 C-182.36471002 64.44478005 -182.3629702 61.99290069 -182.35644531 59.5402832 C-182.3656601 58.81595596 -182.37487488 58.09162872 -182.3843689 57.34535217 C-182.3601676 54.45808914 -182.32583702 52.47682809 -180.6700592 50.05377197 C-177.92375667 48.32091326 -175.3111254 48.59283389 -172.10546875 48.55859375 C-171.41442551 48.54629227 -170.72338226 48.53399078 -170.01139832 48.52131653 C-168.5180861 48.49552557 -167.0246571 48.47591557 -165.53118896 48.46179199 C-161.54740439 48.42050065 -157.56492227 48.32206224 -153.58203125 48.23046875 C-152.36864075 48.20413864 -152.36864075 48.20413864 -151.1307373 48.17727661 C-102.15938243 47.07590639 -60.82813134 35.3156599 -20.1171875 7.7265625 C-19.35567383 7.21407959 -18.59416016 6.70159668 -17.80957031 6.17358398 C-16.40337242 5.21699854 -15.00833033 4.24369384 -13.62792969 3.25024414 C-9.25962066 0.26119447 -5.33754645 -1.36307654 0 0 Z M-42.17578125 26.51953125 C-43.16900391 27.04740234 -44.16222656 27.57527344 -45.18554688 28.11914062 C-46.73338867 28.95735352 -46.73338867 28.95735352 -48.3125 29.8125 C-57.39949691 34.68606941 -66.17711394 38.86001096 -76 42 C-77.18980469 42.39445312 -78.37960938 42.78890625 -79.60546875 43.1953125 C-96.0892434 48.58733472 -112.23826918 51.03609976 -129.5625 51.53515625 C-130.96355177 51.57824026 -132.36459334 51.62165695 -133.765625 51.66539001 C-137.42822973 51.77883374 -141.09095412 51.88779809 -144.75372314 51.99578857 C-148.5012638 52.10708553 -152.24867186 52.22267574 -155.99609375 52.33789062 C-163.33060696 52.56276479 -170.6652521 52.78290073 -178 53 C-178.02325111 63.63187349 -178.04097986 74.26374084 -178.05181217 84.89563465 C-178.05701319 89.8333457 -178.0640599 94.77103925 -178.07543945 99.70874023 C-178.0863677 104.48090981 -178.09229775 109.25306263 -178.09487724 114.02524376 C-178.09671368 115.83873444 -178.10029951 117.6522243 -178.10573006 119.46570778 C-178.13010401 127.94862292 -178.15164895 136.34436059 -177.2348175 144.78892517 C-176.90699631 147.87573589 -176.8214849 150.95244079 -176.75390625 154.0546875 C-176.72256592 155.31361816 -176.69122559 156.57254883 -176.65893555 157.86962891 C-176.64357758 158.52167297 -176.6282196 159.17371704 -176.61239624 159.84552002 C-175.96725226 186.08611018 -174.06656032 212.05184285 -170 238 C-169.85868652 238.94552734 -169.71737305 239.89105469 -169.57177734 240.86523438 C-169.19885662 243.25517369 -168.7721118 245.62542821 -168.3125 248 C-168.08175781 249.2375 -167.85101563 250.475 -167.61328125 251.75 C-165.21232757 256.58678804 -161.59642778 258.37551861 -157 261 C-155.63766235 261.80800049 -155.63766235 261.80800049 -154.24780273 262.63232422 C-151.20030989 264.42659688 -148.13422449 266.18505672 -145.0625 267.9375 C-143.35158975 268.91831187 -141.64068329 269.89913041 -139.92999268 270.88032532 C-138.75082717 271.55642881 -137.57142256 272.23211546 -136.39178467 272.90739441 C-132.18677877 275.31518966 -127.99155617 277.73940759 -123.80078125 280.171875 C-122.62819958 280.85168831 -121.45559249 281.53145775 -120.28295898 282.21118164 C-118.06413716 283.49790438 -115.84615636 284.78607883 -113.62915039 286.07592773 C-112.61457764 286.66317627 -111.60000488 287.2504248 -110.5546875 287.85546875 C-109.67280762 288.36746826 -108.79092773 288.87946777 -107.88232422 289.40698242 C-104.30798265 291.38246766 -100.66429942 293.19827523 -97 295 C-96.98018066 293.82904785 -96.96036133 292.6580957 -96.93994141 291.45166016 C-96.86399919 287.11663926 -96.7752648 282.78195905 -96.68261719 278.44726562 C-96.64428023 276.56940424 -96.60943573 274.69146824 -96.578125 272.81347656 C-96.53257637 270.11756679 -96.47456625 267.42217288 -96.4140625 264.7265625 C-96.40251129 263.88380768 -96.39096008 263.04105286 -96.37905884 262.17276001 C-96.22774341 256.22774341 -96.22774341 256.22774341 -94 254 C-92.19889641 253.74946022 -92.19889641 253.74946022 -89.97897339 253.7484436 C-89.13795578 253.74306076 -88.29693817 253.73767792 -87.43043518 253.73213196 C-86.5057695 253.73625595 -85.58110382 253.74037994 -84.62841797 253.74462891 C-83.65586563 253.74100845 -82.68331329 253.737388 -81.68128967 253.73365784 C-79.56362727 253.72675089 -77.44594701 253.72426082 -75.32827377 253.72560501 C-71.97370065 253.72656781 -68.61945015 253.71365554 -65.2649231 253.69662476 C-55.72514387 253.65028833 -46.18539561 253.62575916 -36.64550781 253.61914062 C-30.81403082 253.61411869 -24.98288749 253.58982791 -19.15152359 253.55381393 C-16.93086884 253.54402623 -14.71016811 253.54167834 -12.48949814 253.54698563 C-9.37528782 253.55407594 -6.26206622 253.53673073 -3.14794922 253.51416016 C-1.77916878 253.52641884 -1.77916878 253.52641884 -0.38273621 253.53892517 C6.50401222 253.45044645 12.10387478 251.9126117 17.05859375 246.9296875 C17.51363281 246.25164062 17.96867188 245.57359375 18.4375 244.875 C18.91058594 244.19179688 19.38367188 243.50859375 19.87109375 242.8046875 C22.33303297 238.86899228 22.16853946 235.44728189 22.19287109 230.91357422 C22.20104858 230.07757187 22.20922607 229.24156952 22.21765137 228.38023376 C22.24252373 225.60505898 22.25902923 222.82993555 22.2734375 220.0546875 C22.28142302 218.63266714 22.28142302 218.63266714 22.28956985 217.1819191 C22.31631396 212.16067564 22.33568174 207.13945711 22.35009766 202.11816406 C22.36671646 196.93968257 22.41146739 191.76184109 22.4624691 186.583601 C22.49618973 182.59605205 22.50768057 178.6086538 22.51332474 174.62097549 C22.5200277 172.71285253 22.53522484 170.80473914 22.55921555 168.89675522 C22.59096333 166.21824476 22.5908893 163.54144348 22.58349609 160.86279297 C22.59990143 160.08118301 22.61630676 159.29957306 22.63320923 158.49427795 C22.56652187 152.56075781 20.66391425 148.63861052 17 144 C15.02631535 142.1396089 15.02631535 142.1396089 12.9375 141.0625 C12.28652344 140.68222656 11.63554687 140.30195313 10.96484375 139.91015625 C-1.74095328 134.02456836 -16.99723516 138 -31 138 C-31.33 168.36 -31.66 198.72 -32 230 C-37 231 -37 231 -39.33203125 229.65625 C-40.15058594 228.9446875 -40.96914062 228.233125 -41.8125 227.5 C-42.76382813 226.67757812 -43.71515625 225.85515625 -44.6953125 225.0078125 C-49.90799235 220.30321619 -55.01825659 215.48791453 -60.10546875 210.6484375 C-63.35971684 207.56891965 -66.70341056 204.61022116 -70.0871582 201.67431641 C-72.94473944 199.17306662 -75.72229612 196.58920303 -78.5 194 C-82.77745883 190.02971398 -87.08802791 186.1126612 -91.51171875 182.3046875 C-94.96295396 179.27919522 -94.96295396 179.27919522 -95.24609566 177.14531517 C-95.24333028 176.00874442 -95.24333028 176.00874442 -95.24050903 174.84921265 C-95.24325836 173.97980545 -95.24600769 173.11039825 -95.24884033 172.21464539 C-95.2380545 170.78074211 -95.2380545 170.78074211 -95.22705078 169.31787109 C-95.22734283 168.31296127 -95.22763489 167.30805145 -95.22793579 166.27268982 C-95.22653856 162.93951893 -95.21095882 159.60656951 -95.1953125 156.2734375 C-95.19158377 153.96701174 -95.18873614 151.6605844 -95.18673706 149.35415649 C-95.17908959 143.27465464 -95.15943154 137.19524789 -95.1373291 131.11578369 C-95.11689463 124.91574388 -95.10774048 118.71568875 -95.09765625 112.515625 C-95.0761867 100.34370815 -95.04203735 88.17186197 -95 76 C-81.82013587 75.88331018 -68.64039792 75.79488537 -55.46011925 75.74093914 C-49.33764562 75.71502633 -43.21552962 75.67996917 -37.09326172 75.62280273 C-31.16688226 75.56782203 -25.2408432 75.53844243 -19.31422806 75.52561378 C-17.07157672 75.51649094 -14.82894054 75.49868295 -12.58643723 75.47134972 C15.43461073 75.14390267 44.77952354 80.58587463 65.88745117 100.35253906 C75.39155011 109.68748331 81.47815788 120.088708 85 133 C85.24788269 133.87861191 85.49576538 134.75722382 85.75115967 135.66246033 C88.56031908 146.94815039 88.47338635 158.04215807 88.46875 169.609375 C88.47586955 171.78827098 88.4835711 173.96716513 88.49182129 176.14605713 C88.50520041 180.69475526 88.50686482 185.24328001 88.50097656 189.79199219 C88.49509032 195.57228413 88.52565958 201.35173333 88.56609344 207.13186264 C88.59215818 211.62766875 88.59483089 216.12327703 88.59120178 220.61914825 C88.59287586 222.74784713 88.60234972 224.8765569 88.62034607 227.00518036 C88.7806809 248.31228024 85.29408537 269.32914634 71 286 C70.278125 286.99 69.55625 287.98 68.8125 289 C53.60167704 306.89508584 26.5593423 314.02680389 4 316 C-0.78013944 316.1937054 -5.5602939 316.25560737 -10.34375 316.31640625 C-11.72237719 316.33701487 -13.10099861 316.35801226 -14.47961426 316.37937927 C-18.08308198 316.43419691 -21.68660285 316.48378141 -25.29016113 316.53222656 C-28.97734222 316.58273868 -32.66444749 316.6382686 -36.3515625 316.69335938 C-43.56764387 316.8004468 -50.7837889 316.90199841 -58 317 C-55.39640081 319.71584802 -52.78608414 321.41098011 -49.49609375 323.265625 C-47.81652588 324.21804077 -47.81652588 324.21804077 -46.10302734 325.18969727 C-45.5065741 325.52494415 -44.91012085 325.86019104 -44.29559326 326.20559692 C-41.76158447 327.62992079 -39.23366239 329.06489886 -36.7052002 330.4990387 C-35.39750414 331.24053345 -34.08947639 331.98144351 -32.78112793 332.7217865 C-26.45870415 336.30012866 -20.16426658 339.92622361 -13.875 343.5625 C-12.29368286 344.4757605 -12.29368286 344.4757605 -10.68041992 345.4074707 C-8.54364853 346.6415323 -6.40701125 347.87582612 -4.27050781 349.11035156 C-0.87603332 351.07162602 2.51890718 353.032092 5.9140625 354.9921875 C7.05125732 355.64888428 8.18845215 356.30558105 9.36010742 356.98217773 C11.58834156 358.26744437 13.81764107 359.55086608 16.0480957 360.83227539 C20.57772254 363.43564969 25.09977602 366.04357728 29.56640625 368.75390625 C30.21577148 369.14263916 30.86513672 369.53137207 31.53417969 369.93188477 C33.15018239 370.90250693 34.75726233 371.88794612 36.36328125 372.875 C39.55829237 374.23820474 40.70069574 373.92001599 44 373 C46.34864706 371.87126943 46.34864706 371.87126943 48.67578125 370.40234375 C49.57417725 369.85626465 50.47257324 369.31018555 51.39819336 368.74755859 C52.35991455 368.15023926 53.32163574 367.55291992 54.3125 366.9375 C55.31998291 366.31697754 56.32746582 365.69645508 57.36547852 365.05712891 C104.8938082 335.5664158 146.34190596 305.13382835 159.74560547 248.01293945 C160.9035067 243.0964933 160.9035067 243.0964933 162 242 C162.20768229 240.52603261 162.36716017 239.0450874 162.5 237.5625 C162.89041096 233.21917808 162.89041096 233.21917808 164 231 C164.64642586 226.12419045 165.01751693 221.21265526 165.4375 216.3125 C165.50280914 215.56189301 165.56811829 214.81128601 165.63540649 214.03793335 C166.86935323 199.64691406 167.59126394 185.24253365 168.1875 170.8125 C168.25141434 169.27029282 168.25141434 169.27029282 168.31661987 167.69692993 C168.43715282 164.74208585 168.55384266 161.78712929 168.66796875 158.83203125 C168.70218933 157.95623413 168.73640991 157.08043701 168.77166748 156.17810059 C168.83162842 154.54778113 168.88354979 152.91713882 168.92602539 151.28627014 C168.97522075 149.76583123 169.05730671 148.24609153 169.17260742 146.72923279 C169.3540629 144.34839855 169.3540629 144.34839855 169 141 C167.27424872 138.89824673 167.27424872 138.89824673 164.6640625 137.68359375 C163.71547363 137.15515869 162.76688477 136.62672363 161.78955078 136.08227539 C160.74524902 135.53949951 159.70094727 134.99672363 158.625 134.4375 C156.40597092 133.21665296 154.18723045 131.9952812 151.96875 130.7734375 C150.81503906 130.15178711 149.66132813 129.53013672 148.47265625 128.88964844 C142.95995004 125.88990532 137.54875673 122.71927334 132.125 119.5625 C129.94075436 118.30225784 127.75585427 117.04314929 125.5703125 115.78515625 C117.96296067 111.40307758 110.35892104 107.01526666 102.75488281 102.62744141 C97.31414664 99.48817754 91.87268523 96.35018503 86.4296875 93.21484375 C75.97793801 87.19252671 65.53700452 81.15330663 55.125 75.0625 C46.44737548 69.98724753 37.73386463 64.97755447 29 60 C20.22603147 54.99908675 11.47088488 49.96816918 2.75 44.875 C1.7899707 44.31538574 0.82994141 43.75577148 -0.15917969 43.17919922 C-5.35005863 40.14900399 -10.52531046 37.09445975 -15.6875 34.015625 C-17.33443848 33.03940186 -17.33443848 33.03940186 -19.01464844 32.04345703 C-21.12638578 30.79126626 -23.23402277 29.53212706 -25.33691406 28.26513672 C-26.28276367 27.70584473 -27.22861328 27.14655273 -28.203125 26.5703125 C-29.03489258 26.07289551 -29.86666016 25.57547852 -30.72363281 25.06298828 C-35.23010338 22.95861539 -38.10408097 24.32679627 -42.17578125 26.51953125 Z M-92 79 C-92.16229085 91.78691035 -92.28662103 104.57357515 -92.3626852 117.36130619 C-92.39919518 123.29942806 -92.44870641 129.23684461 -92.52807617 135.17456055 C-92.60421314 140.90639093 -92.6460071 146.63754354 -92.6641407 152.36984062 C-92.67706082 154.55516669 -92.70229165 156.74045624 -92.7401104 158.92549324 C-92.79103951 161.99028371 -92.79791906 165.05228514 -92.79467773 168.11743164 C-92.81984467 169.01798782 -92.8450116 169.91854401 -92.87094116 170.84638977 C-92.81396643 175.8354804 -92.1479901 178.39616967 -88.58045959 181.99900818 C-87.40607509 183.02169701 -86.2146631 184.02549245 -85 185 C-84.31292969 185.62648438 -83.62585938 186.25296875 -82.91796875 186.8984375 C-82.34691406 187.38570313 -81.77585937 187.87296875 -81.1875 188.375 C-77.06901449 191.91319009 -73.08277717 195.58578402 -69.1015625 199.27734375 C-67.19510178 201.21131402 -67.19510178 201.21131402 -65 201 C-65 201.66 -65 202.32 -65 203 C-63.62042584 204.43467016 -63.62042584 204.43467016 -61.75 205.9375 C-58.59989801 208.601682 -55.55248935 211.34157138 -52.54931641 214.1706543 C-47.0910741 219.29431478 -41.74039949 223.62980025 -35 227 C-35 196.31 -35 165.62 -35 134 C10.6 135.2 10.6 135.2 19 142 C24.413202 147.71393544 25.30025722 153.50695417 25.2746582 161.1574707 C25.27976913 161.95343658 25.28488007 162.74940247 25.29014587 163.56948853 C25.30399108 166.1883303 25.30308863 168.80690732 25.30078125 171.42578125 C25.30467158 173.25652666 25.30900695 175.08727117 25.31376648 176.91801453 C25.32121826 180.75193204 25.32094543 184.58575746 25.31567383 188.41967773 C25.30988727 193.31530649 25.32679557 198.21055592 25.3500185 203.10612202 C25.36480453 206.88697996 25.36562082 210.66774764 25.36250877 214.44862938 C25.36301976 216.2526137 25.36821539 218.05660337 25.37832069 219.86055946 C25.49006474 242.60213633 25.49006474 242.60213633 17.86323547 250.50946045 C8.11889896 258.3046743 -5.79683103 256.60476573 -17.51171875 256.609375 C-19.69319374 256.62437353 -21.87465745 256.64110416 -24.05610657 256.65948486 C-29.76553907 256.70298248 -35.47481841 256.72311845 -41.18438721 256.73822021 C-48.05209963 256.76131401 -54.91964468 256.81372331 -61.78722382 256.86116028 C-72.191526 256.92977398 -82.5953486 256.9613856 -93 257 C-93 275.48 -93 293.96 -93 313 C-76.15039723 313.05828062 -76.15039723 313.05828062 -59.30078125 313.09765625 C-52.41712314 313.1095594 -45.5335188 313.12356053 -38.64990234 313.15087891 C-33.09315913 313.17279059 -27.53647368 313.18460683 -21.97969055 313.18975449 C-19.87167961 313.19341763 -17.76367142 313.20056962 -15.65568542 313.21146011 C12.25430253 313.34976817 41.79909264 310.39653689 63 290 C63.825 289.236875 64.65 288.47375 65.5 287.6875 C83.04306226 268.82870807 85.64519226 247.07763994 85.49609375 222.33203125 C85.49624925 220.19650727 85.49774655 218.06098302 85.50050354 215.92546082 C85.50187691 211.4821604 85.48950618 207.03918695 85.46655273 202.59594727 C85.43811948 196.94119558 85.44093421 191.28698363 85.45364285 185.63219166 C85.46064237 181.23344931 85.45276308 176.8348287 85.44038582 172.43610191 C85.43591642 170.35239824 85.43549433 168.26868129 85.43945122 166.18497658 C85.45422547 151.57034948 85.09077684 137.20154095 78.8125 123.6875 C78.51206787 123.02363281 78.21163574 122.35976562 77.90209961 121.67578125 C75.09085629 115.72783551 71.48984471 110.81054791 67 106 C66.37351562 105.29488281 65.74703125 104.58976562 65.1015625 103.86328125 C50.02710078 87.71207226 26.21179942 79.86724394 4.53547096 78.88874817 C-2.31672305 78.72057838 -9.16987702 78.77019861 -16.0234375 78.8046875 C-18.22303132 78.80842516 -20.42262681 78.81126857 -22.6222229 78.81326294 C-28.36617765 78.82084014 -34.11002865 78.84043678 -39.85394287 78.8626709 C-45.73334348 78.88325782 -51.61276111 78.89229193 -57.4921875 78.90234375 C-68.99483685 78.92368911 -80.49740974 78.95775227 -92 79 Z " fill="#5BCEF9" transform="translate(240,34)"/>
<path d="M0 0 C2.86745112 -0.06978263 5.73317935 -0.1205615 8.60107422 -0.16064453 C9.40610886 -0.18218094 10.21114349 -0.20371735 11.04057312 -0.22590637 C18.64873824 -0.30552361 23.76123854 2.0083539 30.125 6.125 C31.68589355 7.06593506 31.68589355 7.06593506 33.27832031 8.02587891 C35.44705813 9.33475754 37.60662308 10.65895327 39.75683594 11.99804688 C44.00943946 14.62311078 48.33581405 17.10945462 52.66748047 19.60107422 C60.31363465 24.00127668 60.31363465 24.00127668 63.92907715 26.2387085 C66.97956444 28.07467268 66.97956444 28.07467268 70.35092163 29.39065552 C79.02940464 33.441264 79.02940464 33.441264 80.71876526 37.89484787 C81.84543593 43.71841739 81.45877153 49.63695351 81.2421875 55.53125 C81.22257836 57.45115596 81.20975835 59.37114213 81.20339966 61.2911377 C81.1731736 66.33366141 81.07141557 71.37188534 80.94818115 76.41290283 C80.75697501 84.47880411 80.64820279 92.54478935 80.58987808 100.61265564 C80.55526802 103.42163486 80.47388381 106.22648838 80.38790894 109.03430176 C79.87903659 119.23828545 79.87903659 119.23828545 84.33862305 128.03686523 C86.14472729 129.65229676 86.14472729 129.65229676 88 131 C89.01697687 131.9723113 90.02653196 132.9524639 91.02734375 133.94140625 C91.98769531 134.80636719 92.94804687 135.67132813 93.9375 136.5625 C94.45836182 137.03373291 94.97922363 137.50496582 95.51586914 137.99047852 C98.91153488 141.05409091 102.35218393 144.06400069 105.80859375 147.05859375 C108.74690023 149.66169236 111.62150686 152.33111183 114.5 155 C119.26728387 159.41432737 124.05901133 163.77976975 129 168 C129.90878906 168.81082031 130.81757813 169.62164062 131.75390625 170.45703125 C133.20603516 171.71580078 133.20603516 171.71580078 134.6875 173 C136.02361328 174.175625 136.02361328 174.175625 137.38671875 175.375 C140.21876253 177.54934804 140.21876253 177.54934804 145 176 C145.33 145.64 145.66 115.28 146 84 C182 84 182 84 192 88 C197.86453066 93.86453066 199.29910044 98.1639655 199.32226562 106.29760742 C199.33716034 107.54963959 199.33716034 107.54963959 199.35235596 108.82696533 C199.38154717 111.58650018 199.39519587 114.3458049 199.40625 117.10546875 C199.41775951 119.02875268 199.4292749 120.95203657 199.4407959 122.87532043 C199.46180264 126.90948554 199.47349582 130.94357111 199.48046875 134.9777832 C199.49142012 140.13161742 199.53943883 145.28438999 199.59641266 150.43789196 C199.63378239 154.41263328 199.64408283 158.3871222 199.6471405 162.36202431 C199.65317106 164.26095683 199.66915221 166.1598861 199.69551086 168.05864525 C199.92622984 185.96026298 199.92622984 185.96026298 194.65563965 192.48213196 C191.96166022 194.95193587 189.32257299 196.46650477 186 198 C185.34 198.33 184.68 198.66 184 199 C182.64895524 199.09890463 181.2932404 199.13770684 179.93859863 199.14476013 C179.08891006 199.15165863 178.2392215 199.15855713 177.36378479 199.16566467 C175.96264687 199.16958473 175.96264687 199.16958473 174.53320312 199.17358398 C173.05991798 199.1836145 173.05991798 199.1836145 171.55686951 199.19384766 C169.41955314 199.20791888 167.28222155 199.2198063 165.1448822 199.22979546 C161.76681989 199.24616367 158.38887078 199.26939838 155.01086426 199.29469299 C145.40492354 199.36559435 135.79893709 199.42569259 126.19287109 199.47680664 C120.32258887 199.5085244 114.45243711 199.54977925 108.58226013 199.59700203 C106.33990313 199.6130633 104.09751605 199.62536566 101.8551178 199.63390923 C98.72554199 199.64600671 95.59627539 199.67013188 92.46679688 199.69702148 C91.53270493 199.69761063 90.59861298 199.69819977 89.63621521 199.69880676 C88.78652664 199.70852509 87.93683807 199.71824341 87.06140137 199.72825623 C85.95085011 199.73460413 85.95085011 199.73460413 84.81786346 199.74108028 C82.74970494 199.85007224 82.74970494 199.85007224 81 202 C80.7540591 204.9366021 80.62624748 207.78562112 80.5859375 210.7265625 C80.56657135 211.58937836 80.5472052 212.45219421 80.5272522 213.34115601 C80.46737796 216.10233616 80.42104002 218.86355784 80.375 221.625 C80.33682741 223.49481005 80.29777611 225.36460238 80.2578125 227.234375 C80.16167008 231.82277309 80.07766834 236.41125351 80 241 C72.09470027 237.15621 64.43454138 233.04522078 56.875 228.5625 C54.79081575 227.33517104 52.7061625 226.10863822 50.62109375 224.8828125 C49.54585449 224.25020508 48.47061523 223.61759766 47.36279297 222.96582031 C43.88900175 220.93511268 40.402693 218.9278939 36.91015625 216.9296875 C36.32536499 216.59462692 35.74057373 216.25956635 35.13806152 215.91435242 C32.30828585 214.29321894 29.47672657 212.67536641 26.64208984 211.06274414 C23.74462787 209.40189296 20.86982091 207.7080292 18 206 C16.91005737 205.39309326 16.91005737 205.39309326 15.7980957 204.77392578 C12.35840049 202.67474939 10.590456 200.75840956 9.36328125 197 C8.97768462 195.3411524 8.63019052 193.67318047 8.3125 192 C8.11881836 191.07227783 7.92513672 190.14455566 7.72558594 189.1887207 C3.64941489 168.17909439 1.93334554 146.35596821 1 125 C0.9548526 123.98215424 0.9097052 122.96430847 0.8631897 121.9156189 C-0.18082733 97.17888904 -0.12172657 72.44561473 -0.06866455 47.69146729 C-0.05823705 42.29301356 -0.05382635 36.89455475 -0.04882812 31.49609375 C-0.03826177 20.99738303 -0.02130935 10.49869405 0 0 Z " fill="#F4ABB8" transform="translate(63,88)"/>
<path d="M0 0 C3.54434427 1.34455698 6.80799193 2.91228344 10.11328125 4.765625 C11.10199219 5.31895508 12.09070313 5.87228516 13.109375 6.44238281 C14.69492187 7.33715332 14.69492187 7.33715332 16.3125 8.25 C17.41464844 8.8697168 18.51679688 9.48943359 19.65234375 10.12792969 C29.29416224 15.56655225 38.8727537 21.11081126 48.41015625 26.73046875 C51.99793234 28.84212419 55.60530677 30.90696937 59.24609375 32.92578125 C60.04402344 33.37469727 60.84195313 33.82361328 61.6640625 34.28613281 C63.13182773 35.11017454 64.60672049 35.92170501 66.08984375 36.71777344 C70.80474045 39.39129097 70.80474045 39.39129097 71.74633789 42.32666016 C72.01710386 45.18025728 71.73438969 47.18641507 71.03125 49.95703125 C70.79365967 50.89667725 70.55606934 51.83632324 70.3112793 52.80444336 C70.04355713 53.79710205 69.77583496 54.78976074 69.5 55.8125 C69.08778198 57.35466187 69.08778198 57.35466187 68.66723633 58.92797852 C66.23186815 67.71630206 63.15122185 75.88841707 59 84 C58.65565918 84.67643555 58.31131836 85.35287109 57.95654297 86.04980469 C53.21440946 95.21835611 47.91494219 103.28498186 41 111 C39.75283203 112.44439453 39.75283203 112.44439453 38.48046875 113.91796875 C23.04154712 131.55794696 3.44127988 144.95548341 -16.31738281 157.3203125 C-18.34647023 158.59080044 -20.37126237 159.867218 -22.39355469 161.1484375 C-25.53405053 163.13567281 -28.68555249 165.10448426 -31.84381104 167.06335449 C-33.10836497 167.85056776 -34.36992931 168.64260511 -35.62835693 169.4395752 C-37.40519225 170.56267422 -39.1928929 171.66608497 -40.984375 172.765625 C-42.02303711 173.41305664 -43.06169922 174.06048828 -44.13183594 174.72753906 C-47.47282839 176.20977031 -48.60407775 176.22412317 -52 175 C-53.93527142 174.04545333 -55.8329214 173.01290909 -57.69921875 171.9296875 C-59.36911865 170.96760376 -59.36911865 170.96760376 -61.07275391 169.98608398 C-62.27773761 169.28250636 -63.48265113 168.5788085 -64.6875 167.875 C-65.94411816 167.14786085 -67.20112306 166.42138967 -68.45849609 165.69555664 C-71.04627864 164.2003235 -73.63175689 162.7012215 -76.21533203 161.19873047 C-80.78241336 158.54338989 -85.36108512 155.90828092 -89.93945312 153.27246094 C-93.13705442 151.43055633 -96.33247427 149.5849197 -99.52734375 147.73828125 C-103.97493793 145.16806351 -108.42574159 142.60352272 -112.87890625 140.04296875 C-132.41808697 128.80404757 -132.41808697 128.80404757 -141.125 123.625 C-142.04865356 123.07996826 -142.04865356 123.07996826 -142.9909668 122.52392578 C-144.34513891 121.71162388 -145.67609767 120.86075498 -147 120 C-147 119.67 -147 119.34 -147 119 C-146.26323029 118.99413376 -145.52646057 118.98826752 -144.7673645 118.98222351 C-137.73845124 118.92371514 -130.70983917 118.85132175 -123.68123055 118.76428509 C-120.0699001 118.7200294 -116.45867098 118.68068281 -112.84716797 118.65356445 C-81.65511255 118.41213412 -47.04344907 116.50088606 -22.8671875 93.9296875 C-12.48330805 83.1982305 -6.84466467 71.33011378 -3 57 C-2.66081543 55.85112305 -2.32163086 54.70224609 -1.97216797 53.51855469 C-0.65579624 48.20989564 -0.646973 42.94519684 -0.5859375 37.5 C-0.56657135 36.42371338 -0.5472052 35.34742676 -0.5272522 34.23852539 C-0.46782459 30.82576235 -0.42121874 27.41296491 -0.375 24 C-0.33678633 21.67576714 -0.29773266 19.35154793 -0.2578125 17.02734375 C-0.16215358 11.35168432 -0.07699995 5.67594161 0 0 Z " fill="#F4AAB8" transform="translate(329,232)"/>
<path d="M0 0 C2.98251597 1.91733169 5.93249766 3.86028423 8.8359375 5.89453125 C38.75101731 26.26610366 72.94513312 43.01359946 109.34765625 46.6171875 C110.61920563 46.74327896 110.61920563 46.74327896 111.91644287 46.87191772 C123.65481903 47.96148333 135.43342016 48.29771777 147.2109375 48.70703125 C155.2134375 48.99578125 163.2159375 49.28453125 171.4609375 49.58203125 C171.4609375 78.29203125 171.4609375 107.00203125 171.4609375 136.58203125 C163.55204617 132.62758558 155.91512926 128.63808484 148.3359375 124.14453125 C146.22691464 122.90434889 144.11752689 121.66478687 142.0078125 120.42578125 C140.39036133 119.47445312 140.39036133 119.47445312 138.74023438 118.50390625 C133.37099017 115.35719017 127.97885559 112.25044506 122.5859375 109.14453125 C121.50683105 108.52263916 120.42772461 107.90074707 119.31591797 107.26000977 C117.12510799 105.99753394 114.9341899 104.73524569 112.74316406 103.47314453 C107.31433808 100.34522977 101.88774469 97.21344677 96.4609375 94.08203125 C94.29428167 92.83201246 92.127615 91.58201247 89.9609375 90.33203125 C68.29427083 77.83203125 46.62760417 65.33203125 24.9609375 52.83203125 C23.88730957 52.21263672 22.81368164 51.59324219 21.70751953 50.95507812 C19.55222439 49.71162615 17.39695077 48.46813689 15.24169922 47.22460938 C10.23756076 44.3374025 5.2332323 41.45052695 0.22808838 38.56506348 C-1.52247491 37.55584021 -3.27296661 36.54649289 -5.0234375 35.53710938 C-7.20298415 34.28035465 -9.38266082 33.02382539 -11.5625 31.76757812 C-18.56767533 27.72786683 -25.55764757 23.66266285 -32.5390625 19.58203125 C-29.57885567 17.15414515 -26.64626401 14.92369308 -23.359375 12.9609375 C-22.21275391 12.26967773 -22.21275391 12.26967773 -21.04296875 11.56445312 C-20.25792969 11.09587891 -19.47289062 10.62730469 -18.6640625 10.14453125 C-17.10256855 9.21100129 -15.54264993 8.27483088 -13.984375 7.3359375 C-13.23188477 6.88492676 -12.47939453 6.43391602 -11.70410156 5.96923828 C-9.61184772 4.62866698 -7.7209459 3.15892632 -5.78125 1.609375 C-2.5390625 -0.41796875 -2.5390625 -0.41796875 0 0 Z " fill="#5BCEF9" transform="translate(237.5390625,38.41796875)"/>
<path d="M0 0 C2.86745112 -0.06978263 5.73317935 -0.1205615 8.60107422 -0.16064453 C9.40610886 -0.18218094 10.21114349 -0.20371735 11.04057312 -0.22590637 C18.64873824 -0.30552361 23.76123854 2.0083539 30.125 6.125 C31.68589355 7.06593506 31.68589355 7.06593506 33.27832031 8.02587891 C35.44705813 9.33475754 37.60662308 10.65895327 39.75683594 11.99804688 C44.00943946 14.62311078 48.33581405 17.10945462 52.66748047 19.60107422 C60.31363465 24.00127668 60.31363465 24.00127668 63.92907715 26.2387085 C66.97956444 28.07467268 66.97956444 28.07467268 70.35092163 29.39065552 C79.02940464 33.441264 79.02940464 33.441264 80.71876526 37.89484787 C81.84543593 43.71841739 81.45877153 49.63695351 81.2421875 55.53125 C81.22257836 57.45115596 81.20975835 59.37114213 81.20339966 61.2911377 C81.1731736 66.33366141 81.07141557 71.37188534 80.94818115 76.41290283 C80.75697501 84.47880411 80.64820279 92.54478935 80.58987808 100.61265564 C80.55526802 103.42163486 80.47388381 106.22648838 80.38790894 109.03430176 C79.87903659 119.23828545 79.87903659 119.23828545 84.33862305 128.03686523 C86.14472729 129.65229676 86.14472729 129.65229676 88 131 C89.01697687 131.9723113 90.02653196 132.9524639 91.02734375 133.94140625 C91.98769531 134.80636719 92.94804687 135.67132813 93.9375 136.5625 C94.45836182 137.03373291 94.97922363 137.50496582 95.51586914 137.99047852 C98.9012526 141.04481411 102.33114837 144.04601069 105.77734375 147.03125 C110.93242271 151.59743593 115.95324706 156.31482845 121 161 C120.34 161.33 119.68 161.66 119 162 C116.76708984 160.95874023 116.76708984 160.95874023 113.9609375 159.30859375 C112.39666016 158.3969043 112.39666016 158.3969043 110.80078125 157.46679688 C109.67027344 156.79712891 108.53976563 156.12746094 107.375 155.4375 C106.19445652 154.74598265 105.01346068 154.05523703 103.83203125 153.36523438 C101.39949053 151.94289607 98.96962276 150.51615173 96.54199219 149.08544922 C92.34012823 146.60953879 88.12685565 144.15333556 83.91308594 141.69775391 C81.95483334 140.5564793 79.99715993 139.41421038 78.04003906 138.27099609 C65.25755263 130.80513756 52.42450741 123.42676413 39.59619141 116.04003906 C36.20961331 114.08979552 32.82355351 112.13865416 29.4375 110.1875 C28.44057129 109.61394775 27.44364258 109.04039551 26.41650391 108.44946289 C24.45878135 107.32126478 22.51273584 106.17250556 20.58026123 105.00158691 C18.0249262 103.50452158 15.44847243 102.32516904 12.71133423 101.19773865 C1.41799628 96.18692027 1.41799628 96.18692027 -0.94946861 90.86608696 C-2.41123303 84.54792099 -1.95042547 78.10830298 -1.66015625 71.6796875 C-1.6284089 69.60899771 -1.60422893 67.53817934 -1.58726501 65.46731567 C-1.52264902 60.04192358 -1.35599059 54.62439265 -1.16729736 49.2020874 C-0.99270763 43.65924464 -0.9156091 38.11511798 -0.83007812 32.5703125 C-0.64829015 21.71010537 -0.35856639 10.85570857 0 0 Z " fill="#FEFEFE" transform="translate(63,88)"/>
<path d="M0 0 C3.54434427 1.34455698 6.80799193 2.91228344 10.11328125 4.765625 C11.59634766 5.59562012 11.59634766 5.59562012 13.109375 6.44238281 C14.16640625 7.03889648 15.2234375 7.63541016 16.3125 8.25 C17.96572266 9.1795752 17.96572266 9.1795752 19.65234375 10.12792969 C29.29416224 15.56655225 38.8727537 21.11081126 48.41015625 26.73046875 C51.99793234 28.84212419 55.60530677 30.90696937 59.24609375 32.92578125 C60.04402344 33.37469727 60.84195313 33.82361328 61.6640625 34.28613281 C63.13182773 35.11017454 64.60672049 35.92170501 66.08984375 36.71777344 C70.80474045 39.39129097 70.80474045 39.39129097 71.74633789 42.32666016 C72.01710386 45.18025728 71.73438969 47.18641507 71.03125 49.95703125 C70.79365967 50.89667725 70.55606934 51.83632324 70.3112793 52.80444336 C70.04355713 53.79710205 69.77583496 54.78976074 69.5 55.8125 C69.08778198 57.35466187 69.08778198 57.35466187 68.66723633 58.92797852 C66.23186815 67.71630206 63.15122185 75.88841707 59 84 C58.65565918 84.67643555 58.31131836 85.35287109 57.95654297 86.04980469 C53.20825153 95.23026199 47.86735323 103.23001064 41 111 C40.28457031 111.89332031 39.56914062 112.78664063 38.83203125 113.70703125 C38.14496094 114.54621094 37.45789063 115.38539063 36.75 116.25 C36.14671875 116.99765625 35.5434375 117.7453125 34.921875 118.515625 C33 120 33 120 30.71972656 119.77758789 C27.66195449 118.90335054 25.30364813 117.6556744 22.5625 116.04296875 C21.51175293 115.4301001 20.46100586 114.81723145 19.37841797 114.18579102 C18.26354004 113.52635498 17.14866211 112.86691895 16 112.1875 C14.84436922 111.51085718 13.68827705 110.83500178 12.53173828 110.15991211 C10.17498739 108.78386181 7.81993829 107.40496302 5.46582031 106.02441406 C0.29237557 102.99613539 -4.91614083 100.02931268 -10.125 97.0625 C-11.85679201 96.07425586 -13.58856506 95.08597849 -15.3203125 94.09765625 C-16.54682647 93.39835238 -17.77336817 92.69909713 -19 92 C-18.24059341 88.52340508 -17.17598954 86.80675192 -14.8125 84.125 C-0.98351506 66.75375457 -0.38207489 44.62276774 -0.25 23.5 C-0.2217798 21.21221762 -0.19184417 18.92445573 -0.16015625 16.63671875 C-0.08701918 11.09122638 -0.03495857 5.54585776 0 0 Z " fill="#FEFEFE" transform="translate(329,232)"/>
<path d="M0 0 C3.58777436 1.73240619 6.78931764 3.92615202 10.0625 6.1875 C12.01648461 7.48117599 13.97361791 8.77010657 15.93359375 10.0546875 C16.93503418 10.71307617 17.93647461 11.37146484 18.96826172 12.04980469 C58.84855369 37.7031927 98.56824656 47.22482691 145.59765625 48.234375 C146.39850647 48.2525679 147.19935669 48.2707608 148.0244751 48.289505 C151.95474401 48.37675309 155.88387361 48.44592808 159.81494141 48.4831543 C161.24512384 48.5079197 162.67530005 48.53304777 164.10546875 48.55859375 C165.36512451 48.57204834 166.62478027 48.58550293 167.92260742 48.59936523 C171 49 171 49 172.6700592 50.05377197 C174.70364962 53.02971697 174.40069607 56.06195623 174.35644531 59.5402832 C174.35848969 60.30873566 174.36053406 61.07718811 174.36264038 61.868927 C174.3656635 64.42978229 174.34707008 66.99000124 174.328125 69.55078125 C174.32505922 71.36117902 174.32318934 73.17157916 174.32244873 74.98197937 C174.31783019 78.8063544 174.30338615 82.63052075 174.28125 86.45483398 C174.25366084 91.23351446 174.24219647 96.01202807 174.23743725 100.79078007 C174.2166691 119.78725963 174.03745052 138.77542056 173.53515625 157.765625 C173.51517326 158.52877329 173.49519028 159.29192158 173.47460175 160.07819557 C171.83839578 221.02603698 167.05754462 281.7610192 121.0390625 326.24609375 C115.34962238 331.61285324 109.31912694 336.40167676 103 341 C102.35482422 341.47356934 101.70964844 341.94713867 101.04492188 342.43505859 C77.2590604 359.81659404 51.56493141 374.48009008 26.08740234 389.20361328 C22.92786171 391.04197324 19.78591226 392.90815207 16.64453125 394.77734375 C14.59673518 395.97721301 12.54857102 397.17645432 10.5 398.375 C9.56309326 398.94081787 8.62618652 399.50663574 7.66088867 400.08959961 C-0.85169697 405.01867001 -0.85169697 405.01867001 -5.80566406 404.609375 C-11.1573947 403.12318011 -15.86639752 400.10005773 -20.625 397.3125 C-21.82834807 396.62311342 -23.03246154 395.93506131 -24.23730469 395.24829102 C-27.27069149 393.51285544 -30.29123682 391.75644204 -33.30700684 389.99060059 C-34.88012682 389.07013994 -36.45606375 388.15449825 -38.03222656 387.23925781 C-43.47722344 384.07636908 -48.89465999 380.87047587 -54.29199219 377.62695312 C-56.12412974 376.52621704 -57.95817232 375.42864663 -59.79394531 374.33398438 C-84.93764777 359.33598642 -110.43324983 343.86640116 -131.55224609 323.39648438 C-132.91076272 322.08607711 -134.2925464 320.79991312 -135.67578125 319.515625 C-178.51196462 278.74463865 -180.09108842 212.91443338 -181.53515625 157.765625 C-181.55631752 156.96558233 -181.57747879 156.16553967 -181.59928131 155.34125328 C-182.09346389 136.22328334 -182.22118881 117.10587694 -182.24023438 97.98217773 C-182.245868 93.1631373 -182.27031293 88.3443588 -182.29820633 83.52540302 C-182.31673196 79.76373965 -182.3220314 76.00214361 -182.32357025 72.24043846 C-182.32658632 70.45939784 -182.33457933 68.6783581 -182.34775543 66.89736366 C-182.36471002 64.44478005 -182.3629702 61.99290069 -182.35644531 59.5402832 C-182.3656601 58.81595596 -182.37487488 58.09162872 -182.3843689 57.34535217 C-182.3601676 54.45808914 -182.32583702 52.47682809 -180.6700592 50.05377197 C-177.92375667 48.32091326 -175.3111254 48.59283389 -172.10546875 48.55859375 C-171.41442551 48.54629227 -170.72338226 48.53399078 -170.01139832 48.52131653 C-168.5180861 48.49552557 -167.0246571 48.47591557 -165.53118896 48.46179199 C-161.54740439 48.42050065 -157.56492227 48.32206224 -153.58203125 48.23046875 C-152.36864075 48.20413864 -152.36864075 48.20413864 -151.1307373 48.17727661 C-102.15938243 47.07590639 -60.82813134 35.3156599 -20.1171875 7.7265625 C-19.35567383 7.21407959 -18.59416016 6.70159668 -17.80957031 6.17358398 C-16.40337242 5.21699854 -15.00833033 4.24369384 -13.62792969 3.25024414 C-9.25962066 0.26119447 -5.33754645 -1.36307654 0 0 Z M-11.125 8.125 C-25.56322382 17.92875431 -40.70379493 26.63988578 -56.4375 34.1875 C-57.365625 34.63279053 -58.29375 35.07808105 -59.25 35.53686523 C-64.73400762 38.10375199 -70.2218494 40.20299315 -76 42 C-77.28439179 42.42546378 -78.56826692 42.85249116 -79.8515625 43.28125 C-96.28011682 48.58736692 -112.31318232 51.03825777 -129.5625 51.53515625 C-130.96355177 51.57824026 -132.36459334 51.62165695 -133.765625 51.66539001 C-137.42822973 51.77883374 -141.09095412 51.88779809 -144.75372314 51.99578857 C-148.5012638 52.10708553 -152.24867186 52.22267574 -155.99609375 52.33789062 C-163.33060696 52.56276479 -170.6652521 52.78290073 -178 53 C-178.02325111 63.63187349 -178.04097986 74.26374084 -178.05181217 84.89563465 C-178.05701319 89.8333457 -178.0640599 94.77103925 -178.07543945 99.70874023 C-178.0863677 104.48090981 -178.09229775 109.25306263 -178.09487724 114.02524376 C-178.09671368 115.83873444 -178.10029951 117.6522243 -178.10573006 119.46570778 C-178.13010401 127.94862292 -178.15164895 136.34436059 -177.2348175 144.78892517 C-176.90699631 147.87573589 -176.8214849 150.95244079 -176.75390625 154.0546875 C-176.72256592 155.31361816 -176.69122559 156.57254883 -176.65893555 157.86962891 C-176.64357758 158.52167297 -176.6282196 159.17371704 -176.61239624 159.84552002 C-175.09982667 221.36778401 -169.79929779 278.97373871 -123.87890625 323.4609375 C-117.01994342 329.9422071 -109.7402045 335.61557907 -102 341 C-100.7001416 341.90516357 -100.7001416 341.90516357 -99.37402344 342.82861328 C-77.02230076 358.26343684 -53.63398383 372.07559082 -30.046875 385.51953125 C-26.10302376 387.77199498 -22.201504 390.07769278 -18.328125 392.44921875 C-17.45486572 392.97725098 -16.58160645 393.5052832 -15.68188477 394.04931641 C-14.06912941 395.02767186 -12.46471976 396.01997899 -10.87084961 397.02880859 C-10.16452393 397.45371582 -9.45819824 397.87862305 -8.73046875 398.31640625 C-7.82397583 398.88016968 -7.82397583 398.88016968 -6.89916992 399.45532227 C-1.89595767 400.89023248 4.52483403 395.59815534 8.76855469 393.25366211 C9.91743164 392.61307861 11.06630859 391.97249512 12.25 391.3125 C12.84413696 390.98186554 13.43827393 390.65123108 14.05041504 390.31057739 C25.84088463 383.74132613 37.4346778 376.86538647 48.96240234 369.84521484 C52.00609757 367.99629598 55.05849376 366.16255504 58.11328125 364.33203125 C69.34369229 357.58428204 80.37698364 350.67385035 91 343 C91.6604834 342.52353027 92.3209668 342.04706055 93.00146484 341.55615234 C126.61683285 317.15465943 150.06966541 289.24769684 159.74560547 248.01293945 C160.9035067 243.0964933 160.9035067 243.0964933 162 242 C162.20768229 240.52603261 162.36716017 239.0450874 162.5 237.5625 C162.89041096 233.21917808 162.89041096 233.21917808 164 231 C166.48073675 212.28849623 167.27971035 193.22635589 168.08984375 174.3828125 C168.13305126 173.38721251 168.17625877 172.39161251 168.2207756 171.36584282 C169.20288525 148.15512013 169.23782916 124.96165916 169.1373291 101.734375 C169.11626189 96.31447028 169.10761029 90.89454387 169.09765625 85.47460938 C169.07668678 74.98302032 169.04291329 64.49152079 169 54 C168.40548035 53.97938507 167.81096069 53.95877014 167.19842529 53.93753052 C160.90168255 53.71790111 154.60531755 53.48907985 148.30908203 53.25537109 C145.97224988 53.16977167 143.63533607 53.08636757 141.29833984 53.00537109 C102.46676225 51.65485251 102.46676225 51.65485251 85.5625 47.375 C84.51811768 47.11557617 83.47373535 46.85615234 82.39770508 46.58886719 C52.37992442 38.83675996 23.89247358 23.51262079 -1.03466797 5.27416992 C-5.15486843 2.60294927 -7.62946036 5.68768763 -11.125 8.125 Z " fill="#1F2224" transform="translate(240,34)"/>
<path d="M0 0 C36 0 36 0 46 4 C51.86453066 9.86453066 53.29910044 14.1639655 53.32226562 22.29760742 C53.33219543 23.13229553 53.34212524 23.96698364 53.35235596 24.82696533 C53.38154717 27.58650018 53.39519587 30.3458049 53.40625 33.10546875 C53.41775951 35.02875268 53.4292749 36.95203657 53.4407959 38.87532043 C53.46180264 42.90948554 53.47349582 46.94357111 53.48046875 50.9777832 C53.49142012 56.13161742 53.53943883 61.28438999 53.59641266 66.43789196 C53.63378239 70.41263328 53.64408283 74.3871222 53.6471405 78.36202431 C53.65317106 80.26095683 53.66915221 82.1598861 53.69551086 84.05864525 C53.92635501 101.96997488 53.92635501 101.96997488 48.63122559 108.46992493 C45.82757457 111.09972462 43.62337566 112.57653099 40 114 C35.11223648 113.65617346 31.7335454 111.99071873 27.53515625 109.54296875 C26.64055946 109.02661613 26.64055946 109.02661613 25.72789001 108.49983215 C23.83429941 107.40428426 21.94839192 106.29623733 20.0625 105.1875 C18.80062386 104.45422794 17.53825784 103.72179823 16.27539062 102.99023438 C13.93705538 101.63432357 11.60240611 100.27274618 9.26977539 98.90698242 C5.85842376 96.9174306 2.42880599 94.95931771 -1 93 C-0.67 62.31 -0.34 31.62 0 0 Z " fill="#FDFDFD" transform="translate(209,172)"/>
<path d="M0 0 C0.97917892 -0.00817749 1.95835785 -0.01635498 2.96720886 -0.02478027 C6.23244618 -0.04973226 9.4976391 -0.06619259 12.76293945 -0.08056641 C14.44145461 -0.08855192 14.44145461 -0.08855192 16.15387917 -0.09669876 C22.09899842 -0.12349735 28.04409639 -0.14283381 33.98925781 -0.15722656 C38.87649694 -0.17046171 43.76330815 -0.19810898 48.65039062 -0.23925781 C54.5714647 -0.28911112 60.49215625 -0.31341438 66.41343117 -0.32045364 C68.65327942 -0.32709227 70.89312169 -0.34211611 73.13284874 -0.36634445 C101.42540167 -0.65444691 130.70781994 4.92037491 151.93408203 24.90332031 C161.70255254 34.51252994 168.05711373 44.87917432 171.6887207 58.19287109 C171.93660339 59.071483 172.18448608 59.95009491 172.43988037 60.85533142 C175.24903978 72.14102149 175.16210705 83.23502917 175.1574707 94.80224609 C175.16459025 96.98114208 175.1722918 99.16003623 175.18054199 101.33892822 C175.19392111 105.88762635 175.19558553 110.4361511 175.18969727 114.98486328 C175.18381102 120.76515522 175.21438028 126.54460442 175.25481415 132.32473373 C175.28087888 136.82053984 175.28355159 141.31614812 175.27992249 145.81201935 C175.28159656 147.94071823 175.29107042 150.06942799 175.30906677 152.19805145 C175.46909615 173.46455997 172.01159303 194.57962955 157.6887207 211.19287109 C157.24012695 211.78455078 156.7915332 212.37623047 156.3293457 212.98583984 C141.76090107 231.71057603 116.49490655 238.44849302 94.08381653 241.71893311 C89.3296859 242.30123912 84.61682244 242.34794576 79.83203125 242.35400391 C78.879832 242.35896881 77.92763275 242.36393372 76.94657898 242.36904907 C73.82285828 242.38355795 70.69918818 242.39044996 67.57543945 242.39599609 C65.39687601 242.40175216 63.21831258 242.40750983 61.03974915 242.41326904 C56.48645798 242.42374356 51.93318431 242.42961096 47.37988281 242.43310547 C41.53764015 242.43861538 35.69562758 242.46271122 29.85345745 242.49107742 C25.36085824 242.5096597 20.86831532 242.51490681 16.37568092 242.51644135 C14.22063741 242.51947299 12.065595 242.52751865 9.91058922 242.54062653 C6.90635647 242.55761179 3.90269828 242.55582646 0.8984375 242.54931641 C0.00541931 242.55853119 -0.88759888 242.56774597 -1.80767822 242.57723999 C-3.03340294 242.56888626 -3.03340294 242.56888626 -4.28388977 242.56036377 C-4.99341954 242.56183033 -5.70294931 242.56329689 -6.43397999 242.56480789 C-8.89568681 242.07708633 -9.78771419 241.15219886 -11.3112793 239.19287109 C-11.69223022 236.65039062 -11.69223022 236.65039062 -11.69946289 233.57568359 C-11.70891937 232.42438965 -11.71837585 231.2730957 -11.7281189 230.08691406 C-11.7220462 228.84312988 -11.71597351 227.5993457 -11.7097168 226.31787109 C-11.71258698 225.04186035 -11.71545715 223.76584961 -11.71841431 222.45117188 C-11.72045764 219.75082993 -11.71641321 217.05130028 -11.70239258 214.35107422 C-11.68530019 210.8906788 -11.69514237 207.43098139 -11.71310997 203.97061157 C-11.72655946 200.66967304 -11.71714174 197.36881873 -11.7097168 194.06787109 C-11.71578949 192.82408691 -11.72186218 191.58030273 -11.7281189 190.29882812 C-11.71393417 188.57188721 -11.71393417 188.57188721 -11.69946289 186.81005859 C-11.69707611 185.79540527 -11.69468933 184.78075195 -11.69223022 183.73535156 C-11.24139662 180.72647157 -10.66348891 180.04253068 -8.3112793 178.19287109 C-6.38712788 177.81928349 -6.38712788 177.81928349 -4.16999817 177.82106018 C-2.90640976 177.81092392 -2.90640976 177.81092392 -1.61729431 177.80058289 C-0.69622391 177.80830215 0.2248465 177.81602142 1.17382812 177.82397461 C2.14652649 177.82020813 3.11922485 177.81644165 4.12139893 177.81256104 C6.23631514 177.80611943 8.35126029 177.80646712 10.46617699 177.81274605 C13.81670377 177.82183844 17.16666872 177.81165186 20.51716614 177.79612732 C30.04414966 177.75598488 39.57109053 177.75482103 49.09814453 177.75708008 C54.92426948 177.75713126 60.75009325 177.73792016 66.57613564 177.70774651 C69.87103979 177.69693533 73.16536536 177.70904654 76.46025085 177.72157288 C78.49238654 177.71266457 80.52451754 177.70258884 82.55664062 177.69116211 C83.9230645 177.70577736 83.9230645 177.70577736 85.3170929 177.72068787 C92.2911431 177.64270367 97.31358347 175.91864928 102.75569153 171.52357483 C108.66717746 163.61314137 107.53575503 153.96924311 107.45043945 144.56396484 C107.4519438 142.64542909 107.45537855 140.72689398 107.46064758 138.80836487 C107.46496653 134.79958309 107.44823419 130.79160924 107.41601562 126.78295898 C107.37620904 121.65941379 107.38555448 116.53738035 107.41025066 111.41378689 C107.42447025 107.45615874 107.41431856 103.4988804 107.39673805 99.54127693 C107.39091246 97.65274962 107.39215463 95.76418616 107.40076256 93.87566948 C107.40880461 91.23117052 107.3843847 88.58884749 107.3515625 85.94458008 C107.36011261 85.17396744 107.36866272 84.4033548 107.37747192 83.60939026 C107.25383347 77.80282841 105.44506708 73.64313044 101.6887207 69.19287109 C95.69496592 64.53875147 89.75278081 64.0362139 82.4230957 63.87646484 C81.23299896 63.8452932 81.23299896 63.8452932 80.01885986 63.81349182 C77.49223227 63.74827137 74.96550349 63.68923965 72.4387207 63.63037109 C70.72256454 63.58715969 69.00641849 63.54354457 67.2902832 63.49951172 C63.08986524 63.39261827 58.88934581 63.29127381 54.6887207 63.19287109 C54.69871346 64.91508377 54.69871346 64.91508377 54.70890808 66.67208862 C54.76962746 77.47308604 54.81464913 88.27404901 54.84415722 99.07517815 C54.85983742 104.62864144 54.88111858 110.18196735 54.91503906 115.73535156 C54.94754862 121.09103884 54.96555596 126.44659368 54.97335243 131.80237198 C54.97891108 133.8493979 54.98976522 135.89641628 55.00591087 137.94338608 C55.02757351 140.80258811 55.03069233 143.66123741 55.02929688 146.52050781 C55.0400827 147.37358521 55.05086853 148.2266626 55.0619812 149.10559082 C55.04948425 151.45968628 55.04948425 151.45968628 54.6887207 155.19287109 C51.6887207 157.19287109 51.6887207 157.19287109 49.45825195 157.23193359 C45.2378869 155.64855263 42.55407345 152.69470601 39.3762207 149.56787109 C38.03066459 148.27667435 36.68431959 146.98629915 35.3371582 145.69677734 C34.38147949 144.77469482 34.38147949 144.77469482 33.40649414 143.83398438 C31.48592306 141.99912383 29.51636209 140.23567182 27.5012207 138.50537109 C24.21267269 135.67336771 21.00745464 132.75582656 17.8137207 129.81787109 C12.4724261 124.9048839 7.09151408 120.03823341 1.6887207 115.19287109 C-0.14510862 113.54759042 -1.97845037 111.90176613 -3.8112793 110.25537109 C-5.03331055 109.15902344 -5.03331055 109.15902344 -6.2800293 108.04052734 C-10.28360073 104.39881718 -10.28360073 104.39881718 -10.56016827 102.34097958 C-10.5596235 101.58456456 -10.55907873 100.82814955 -10.55851746 100.04881287 C-10.56271194 99.18085083 -10.56690643 98.31288879 -10.57122803 97.41862488 C-10.56560852 96.46426041 -10.55998901 95.50989594 -10.55419922 94.52661133 C-10.55609756 93.5233078 -10.55799591 92.52000427 -10.55995178 91.48629761 C-10.56366748 88.15794145 -10.55294474 84.82980173 -10.54174805 81.50146484 C-10.54055667 79.19743373 -10.54010299 76.89340213 -10.5403595 74.58937073 C-10.5387933 69.75640837 -10.53049269 64.92351994 -10.51708984 60.09057617 C-10.50009032 53.88035562 -10.49627569 47.67021634 -10.49703503 41.45997524 C-10.49676376 36.70151486 -10.49128962 31.94307243 -10.48403358 27.184618 C-10.4808406 24.89396361 -10.47887805 22.60330718 -10.47813988 20.31265068 C-10.4759835 17.11831029 -10.46725484 13.92405796 -10.45654297 10.72973633 C-10.45722275 9.29515327 -10.45722275 9.29515327 -10.45791626 7.83158875 C-10.45365128 6.96644653 -10.44938629 6.10130432 -10.44499207 5.20994568 C-10.44331622 4.45390769 -10.44164038 3.6978697 -10.43991375 2.91892147 C-10.08855851 -1.79565413 -3.55571452 0.01621199 0 0 Z M-6.3112793 4.19287109 C-6.47357015 16.97978145 -6.59790032 29.76644624 -6.6739645 42.55417728 C-6.71047448 48.49229915 -6.75998571 54.4297157 -6.83935547 60.36743164 C-6.91549243 66.09926202 -6.9572864 71.83041463 -6.97542 77.56271172 C-6.98834011 79.74803779 -7.01357094 81.93332733 -7.05138969 84.11836433 C-7.10231881 87.1831548 -7.10919836 90.24515623 -7.10595703 93.31030273 C-7.13112396 94.21085892 -7.15629089 95.1114151 -7.18222046 96.03926086 C-7.12524572 101.0283515 -6.45926939 103.58904076 -2.89173889 107.19187927 C-1.71735438 108.21456811 -0.5259424 109.21836354 0.6887207 110.19287109 C1.37579102 110.81935547 2.06286133 111.44583984 2.77075195 112.09130859 C3.34180664 112.57857422 3.91286133 113.06583984 4.5012207 113.56787109 C8.61970621 117.10606119 12.60594354 120.77865512 16.5871582 124.47021484 C18.49361892 126.40418511 18.49361892 126.40418511 20.6887207 126.19287109 C20.6887207 126.85287109 20.6887207 127.51287109 20.6887207 128.19287109 C22.06829487 129.62754126 22.06829487 129.62754126 23.9387207 131.13037109 C27.08882269 133.79455309 30.13623135 136.53444247 33.1394043 139.36352539 C38.5976466 144.48718587 43.94832121 148.82267135 50.6887207 152.19287109 C50.6887207 121.50287109 50.6887207 90.81287109 50.6887207 59.19287109 C96.2887207 60.39287109 96.2887207 60.39287109 104.6887207 67.19287109 C110.1019227 72.90680654 110.98897793 78.69982527 110.96337891 86.3503418 C110.96848984 87.14630768 110.97360077 87.94227356 110.97886658 88.76235962 C110.99271179 91.3812014 110.99180933 93.99977842 110.98950195 96.61865234 C110.99339229 98.44939775 110.99772765 100.28014226 111.00248718 102.11088562 C111.00993896 105.94480313 111.00966613 109.77862855 111.00439453 113.61254883 C110.99860798 118.50817758 111.01551627 123.40342701 111.0387392 128.29899311 C111.05352523 132.07985105 111.05434152 135.86061873 111.05122948 139.64150047 C111.05174046 141.44548479 111.05693609 143.24947447 111.0670414 145.05343056 C111.17878544 167.79500743 111.17878544 167.79500743 103.55195618 175.70233154 C93.80761966 183.4975454 79.89188967 181.79763683 68.17700195 181.80224609 C65.99552696 181.81724463 63.81406325 181.83397526 61.63261414 181.85235596 C55.92318164 181.89585357 50.21390229 181.91598954 44.5043335 181.93109131 C37.63662107 181.95418511 30.76907602 182.0065944 23.90149689 182.05403137 C13.49719471 182.12264508 3.0933721 182.15425669 -7.3112793 182.19287109 C-7.3112793 200.67287109 -7.3112793 219.15287109 -7.3112793 238.19287109 C9.53832347 238.25115172 9.53832347 238.25115172 26.38793945 238.29052734 C33.27159757 238.3024305 40.15520191 238.31643162 47.03881836 238.34375 C52.59556158 238.36566168 58.15224703 238.37747793 63.70903015 238.38262558 C65.81704109 238.38628873 67.92504928 238.39344071 70.03303528 238.40433121 C97.94302323 238.54263927 127.48781334 235.58940799 148.6887207 215.19287109 C149.5137207 214.42974609 150.3387207 213.66662109 151.1887207 212.88037109 C168.73178296 194.02157916 171.33391296 172.27051104 171.18481445 147.52490234 C171.18496995 145.38937837 171.18646725 143.25385411 171.18922424 141.11833191 C171.19059761 136.67503149 171.17822688 132.23205805 171.15527344 127.78881836 C171.12684019 122.13406667 171.12965492 116.47985472 171.14236355 110.82506275 C171.14936307 106.4263204 171.14148379 102.02769979 171.12910652 97.62897301 C171.12463713 95.54526933 171.12421503 93.46155238 171.12817192 91.37784767 C171.14294617 76.76322057 170.77949754 62.39441204 164.5012207 48.88037109 C164.20078857 48.21650391 163.90035645 47.55263672 163.59082031 46.86865234 C160.77957699 40.9207066 157.17856542 36.003419 152.6887207 31.19287109 C152.06223633 30.48775391 151.43575195 29.78263672 150.7902832 29.05615234 C135.71582148 12.90494335 111.90052012 5.06011503 90.22419167 4.08161926 C83.37199765 3.91344947 76.51884368 3.96306971 69.6652832 3.99755859 C67.46568939 4.00129625 65.26609389 4.00413966 63.0664978 4.00613403 C57.32254305 4.01371123 51.57869205 4.03330787 45.83477783 4.05554199 C39.95537722 4.07612891 34.07595959 4.08516303 28.1965332 4.09521484 C16.69388386 4.11656021 5.19131096 4.15062337 -6.3112793 4.19287109 Z " fill="#242223" transform="translate(154.311279296875,108.80712890625)"/>
<path d="M0 0 C22.52892728 -0.88348734 22.52892728 -0.88348734 29.63671875 5.4609375 C33.85523317 10.22338645 35.28636117 13.70005417 35 20 C29.75392926 18.51169466 25.49548698 16.11550142 20.875 13.3125 C19.37389575 12.413732 17.87259224 11.51529673 16.37109375 10.6171875 C15.63487793 10.1747168 14.89866211 9.73224609 14.14013672 9.27636719 C10.13484944 6.88763323 6.07798666 4.5881132 2.02734375 2.27734375 C1.35832031 1.85582031 0.68929687 1.43429688 0 1 C0 0.67 0 0.34 0 0 Z " fill="#F0A8B6" transform="translate(227,172)"/>
</svg>
