<?xml version="1.0" encoding="UTF-8" standalone="no"?>
<svg
   version="1.1"
   width="472"
   height="472"
   id="svg12"
   sodipodi:docname="logo.svg"
   inkscape:version="1.3 (0e150ed6c4, 2023-07-21)"
   xmlns:inkscape="http://www.inkscape.org/namespaces/inkscape"
   xmlns:sodipodi="http://sodipodi.sourceforge.net/DTD/sodipodi-0.dtd"
   xmlns="http://www.w3.org/2000/svg"
   xmlns:svg="http://www.w3.org/2000/svg">
  <defs
     id="defs12" />
  <sodipodi:namedview
     id="namedview12"
     pagecolor="#505050"
     bordercolor="#eeeeee"
     borderopacity="1"
     inkscape:showpageshadow="0"
     inkscape:pageopacity="0"
     inkscape:pagecheckerboard="0"
     inkscape:deskcolor="#505050"
     inkscape:zoom="2.4851695"
     inkscape:cx="236"
     inkscape:cy="236"
     inkscape:window-width="2560"
     inkscape:window-height="1369"
     inkscape:window-x="1912"
     inkscape:window-y="-8"
     inkscape:window-maximized="1"
     inkscape:current-layer="svg12" />
  <path
     d="m 0,0 c 3.5877744,1.7324062 6.7893176,3.926152 10.0625,6.1875 1.953985,1.293676 3.911118,2.5826066 5.871094,3.867188 1.00144,0.658388 2.002881,1.316777 3.034668,1.995117 39.880292,25.653388 79.599985,35.175022 126.629398,36.18457 0.80085,0.01819 1.6017,0.03639 2.42682,0.05513 3.93026,0.08725 7.85939,0.156423 11.79046,0.193649 1.43018,0.02477 2.86036,0.04989 4.29053,0.07544 1.25965,0.01345 2.51931,0.02691 3.81714,0.04077 C 171,49 171,49 172.67006,50.053772 c 2.03359,2.975945 1.73064,6.008184 1.68639,9.486511 0.002,0.768453 0.004,1.536905 0.006,2.328644 0.003,2.560855 -0.0156,5.121074 -0.0345,7.681854 -0.003,1.810398 -0.005,3.620798 -0.006,5.431198 -0.005,3.824375 -0.0191,7.648542 -0.0412,11.472855 -0.0276,4.77868 -0.0391,9.557194 -0.0438,14.335946 -0.0208,18.99648 -0.19999,37.98464 -0.70228,56.97484 -0.02,0.76315 -0.04,1.5263 -0.0606,2.31258 -1.6362,60.94784 -6.41706,121.68282 -52.43554,166.16789 C 115.34962,331.61285 109.31913,336.40168 103,341 c -0.64518,0.47357 -1.29035,0.94714 -1.95508,1.43506 -23.78586,17.38153 -49.479989,32.04503 -74.957518,46.76855 -3.15954,1.83836 -6.30149,3.70454 -9.442871,5.57373 -2.047796,1.19987 -4.09596,2.39911 -6.144531,3.59766 -0.9369067,0.56582 -1.8738135,1.13164 -2.8391113,1.7146 -8.51258567,4.92907 -8.51258567,4.92907 -13.4665528,4.51977 -5.3517309,-1.48619 -10.0607339,-4.50931 -14.8193359,-7.29687 -1.203348,-0.68939 -2.407462,-1.37744 -3.612305,-2.06421 -3.033386,-1.73543 -6.053932,-3.49185 -9.069702,-5.25769 -1.57312,-0.92046 -3.149057,-1.8361 -4.72522,-2.75134 -5.444996,-3.16289 -10.862433,-6.36878 -16.259765,-9.61231 -1.832138,-1.10073 -3.66618,-2.1983 -5.501953,-3.29297 -25.143703,-14.99799 -50.639305,-30.46758 -71.758305,-50.9375 -1.35851,-1.3104 -2.7403,-2.59657 -4.12353,-3.88086 -42.83618,-40.77098 -44.41531,-106.60119 -45.85938,-161.75 -0.0212,-0.80004 -0.0423,-1.60008 -0.0641,-2.42437 -0.49418,-19.11797 -0.62191,-38.23537 -0.64095,-57.359072 -0.006,-4.819041 -0.0301,-9.637819 -0.058,-14.456775 -0.0185,-3.761663 -0.0238,-7.523259 -0.0254,-11.284965 -0.003,-1.78104 -0.011,-3.56208 -0.0242,-5.343074 -0.017,-2.452584 -0.0152,-4.904463 -0.009,-7.357081 -0.009,-0.724327 -0.0184,-1.448654 -0.0279,-2.194931 0.0242,-2.887263 0.0585,-4.868524 1.71431,-7.29158 2.7463,-1.732859 5.35893,-1.460938 8.56459,-1.495178 0.69104,-0.0123 1.38209,-0.0246 2.09407,-0.03728 1.49331,-0.02579 2.98674,-0.0454 4.48021,-0.05953 3.98379,-0.04129 7.96627,-0.13973 11.94916,-0.231323 1.21339,-0.02633 1.21339,-0.02633 2.45129,-0.05319 C -102.15972,47.0759 -60.828471,35.315654 -20.117527,7.7265565 -19.356014,7.2140736 -18.5945,6.7015907 -17.80991,6.173578 -16.403712,5.2169925 -15.00867,4.2436878 -13.62827,3.2502381 -9.2596207,0.26119447 -5.3375464,-1.3630765 0,0 Z"
     fill="#f2a9b7"
     transform="translate(240,34)"
     id="path1"
     style="display:inline" />
  <path
     d="m 0,0 c 12.597088,-0.06991512 25.194129,-0.12302018 37.791372,-0.15543652 5.851189,-0.0155685 11.702243,-0.0366432 17.553355,-0.0708818 5.660501,-0.032911 11.320874,-0.0506007 16.981464,-0.0583134 2.145444,-0.005487 4.290883,-0.0161996 6.436272,-0.0325584 C 105.92114,-0.51579445 134.45967,3.1424354 154.92334,22.80249 156.30263,24.181548 157.65199,25.590352 159,27 c 0.75023,0.779883 1.50047,1.559766 2.27344,2.363281 4.11266,4.687809 6.97087,9.68511 9.53906,15.324219 0.41729,0.89755 0.41729,0.89755 0.84302,1.813232 5.95311,14.00786 5.80642,28.843687 5.77807,43.768799 0.005,2.132626 0.01,4.265251 0.0159,6.397873 0.009,4.448576 0.007,8.896966 -0.003,13.345536 -0.0115,5.65125 0.009,11.30187 0.0379,16.95304 0.0185,4.39886 0.018,8.79758 0.0124,13.19647 -1.5e-4,2.08124 0.006,4.16249 0.0183,6.24369 0.0815,15.74146 -0.54926,32.16716 -8.38962,46.28136 -0.34587,0.65589 -0.69174,1.31178 -1.0481,1.98755 -2.55667,4.71488 -5.2955,8.54355 -9.0769,12.32495 -0.76313,0.825 -1.52625,1.65 -2.3125,2.5 -12.18735,11.33707 -27.67096,19.47754 -44.1875,22.125 -0.7077,0.12117 -1.41539,0.24234 -2.14453,0.36719 -8.11217,1.36438 -15.943222,2.155 -24.16797,2.12134 -1.420897,2.1e-4 -1.420897,2.1e-4 -2.870499,4.4e-4 -3.105691,-6.9e-4 -6.211321,-0.008 -9.317001,-0.0163 -2.16333,-0.002 -4.32666,-0.003 -6.48999,-0.004 -5.674959,-0.004 -11.349893,-0.0136 -17.024842,-0.0247 -6.819142,-0.0121 -13.638293,-0.0166 -20.457443,-0.0224 C 19.685132,234.03654 9.3425959,234.01737 -1,234 c 0,-18.48 0,-36.96 0,-56 6.9467578,-0.0258 13.893516,-0.0516 21.050781,-0.0781 4.416052,-0.0252 8.832037,-0.0515 13.248047,-0.082 7.000409,-0.0482 14.000662,-0.0923 21.001221,-0.11084 5.647686,-0.0152 11.294962,-0.0497 16.942465,-0.0973 2.148382,-0.0148 4.296822,-0.0227 6.445255,-0.0236 17.021967,0.55473 17.021967,0.55473 32.175471,-6.09866 8.76142,-9.08364 7.59599,-21.53824 7.57035,-33.22821 0.005,-1.82646 0.01,-3.65292 0.0159,-5.47937 0.009,-3.81603 0.007,-7.63185 -0.003,-11.44788 -0.0115,-4.87212 0.009,-9.74353 0.0379,-14.61556 0.0184,-3.76801 0.0181,-7.535843 0.0124,-11.303885 -1.5e-4,-1.795614 0.006,-3.59124 0.0183,-5.38681 0.40854,-14.236919 0.40854,-14.236919 -5.8557,-26.571793 C 97.829116,50.778422 71.865476,55.391197 57,55 c 0,30.69 0,61.38 0,93 -7.882,-4.504 -7.882,-4.504 -10.625,-7 -0.982266,-0.88559 -0.982266,-0.88559 -1.984375,-1.78906 -1.907582,-1.7642 -3.813649,-3.53 -5.71875,-5.29688 -0.584429,-0.5414 -1.168857,-1.08281 -1.770996,-1.64062 C 35.728545,131.18523 34.558887,130.09414 33.39209,129 30.432933,126.17507 30.432933,126.17507 27,124 c 0,-0.66 0,-1.32 0,-2 -0.59458,-0.2724 -1.18916,-0.54479 -1.801758,-0.82544 -2.142648,-1.14485 -3.618308,-2.30101 -5.370117,-3.96753 -0.867821,-0.81743 -0.867821,-0.81743 -1.753174,-1.65137 C 17.1716,114.6928 17.1716,114.6928 16.25,113.8125 c -1.247879,-1.17665 -2.496572,-2.35244 -3.746094,-3.52734 -0.900813,-0.84861 -0.900813,-0.84861 -1.819824,-1.71436 -2.7174573,-2.53466 -5.5135,-4.97397 -8.3286132,-7.39892 C 1.5475618,100.4734 0.75517746,99.755177 0,99 c -0.09532328,-3.074548 -0.1255138,-6.126592 -0.11352539,-9.201416 -1.4603e-4,-0.96575 -2.9205e-4,-1.931499 -4.4251e-4,-2.926514 6.9956e-4,-3.208681 0.008494,-6.417305 0.01631165,-9.625976 0.001864,-2.218175 0.003288,-4.436351 0.0042877,-6.654526 0.0038264,-5.850969 0.01365767,-11.701913 0.02470398,-17.552872 0.01021156,-5.965369 0.01479309,-11.930742 0.01983643,-17.896118 C -0.03808869,23.428375 -0.02101085,11.714189 0,0 Z"
     fill="#fcfcfc"
     transform="translate(148,113)"
     id="path2"
     style="display:inline" />
  <path
     d="m 0,0 c 3.5877744,1.7324062 6.7893176,3.926152 10.0625,6.1875 1.953985,1.293676 3.911118,2.5826066 5.871094,3.867188 1.00144,0.658388 2.002881,1.316777 3.034668,1.995117 39.880292,25.653388 79.599985,35.175022 126.629398,36.18457 0.80085,0.01819 1.6017,0.03639 2.42682,0.05513 3.93026,0.08725 7.85939,0.156423 11.79046,0.193649 1.43018,0.02477 2.86036,0.04989 4.29053,0.07544 1.25965,0.01345 2.51931,0.02691 3.81714,0.04077 C 171,49 171,49 172.67006,50.053772 c 2.03359,2.975945 1.73064,6.008184 1.68639,9.486511 0.002,0.768453 0.004,1.536905 0.006,2.328644 0.003,2.560855 -0.0156,5.121074 -0.0345,7.681854 -0.003,1.810398 -0.005,3.620798 -0.006,5.431198 -0.005,3.824375 -0.0191,7.648542 -0.0412,11.472855 -0.0276,4.77868 -0.0391,9.557194 -0.0438,14.335946 -0.0208,18.99648 -0.19999,37.98464 -0.70228,56.97484 -0.02,0.76315 -0.04,1.5263 -0.0606,2.31258 -1.6362,60.94784 -6.41706,121.68282 -52.43554,166.16789 C 115.34962,331.61285 109.31913,336.40168 103,341 c -0.64518,0.47357 -1.29035,0.94714 -1.95508,1.43506 -23.78586,17.38153 -49.479989,32.04503 -74.957518,46.76855 -3.15954,1.83836 -6.30149,3.70454 -9.442871,5.57373 -2.047796,1.19987 -4.09596,2.39911 -6.144531,3.59766 -0.9369067,0.56582 -1.8738135,1.13164 -2.8391113,1.7146 -8.51258567,4.92907 -8.51258567,4.92907 -13.4665528,4.51977 -5.3517309,-1.48619 -10.0607339,-4.50931 -14.8193359,-7.29687 -1.203348,-0.68939 -2.407462,-1.37744 -3.612305,-2.06421 -3.033386,-1.73543 -6.053932,-3.49185 -9.069702,-5.25769 -1.57312,-0.92046 -3.149057,-1.8361 -4.72522,-2.75134 -5.444996,-3.16289 -10.862433,-6.36878 -16.259765,-9.61231 -1.832138,-1.10073 -3.66618,-2.1983 -5.501953,-3.29297 -25.143703,-14.99799 -50.639305,-30.46758 -71.758305,-50.9375 -1.35851,-1.3104 -2.7403,-2.59657 -4.12353,-3.88086 -42.83618,-40.77098 -44.41531,-106.60119 -45.85938,-161.75 -0.0212,-0.80004 -0.0423,-1.60008 -0.0641,-2.42437 -0.49418,-19.11797 -0.62191,-38.23537 -0.64095,-57.359072 -0.006,-4.819041 -0.0301,-9.637819 -0.058,-14.456775 -0.0185,-3.761663 -0.0238,-7.523259 -0.0254,-11.284965 -0.003,-1.78104 -0.011,-3.56208 -0.0242,-5.343074 -0.017,-2.452584 -0.0152,-4.904463 -0.009,-7.357081 -0.009,-0.724327 -0.0184,-1.448654 -0.0279,-2.194931 0.0242,-2.887263 0.0585,-4.868524 1.71431,-7.29158 2.7463,-1.732859 5.35893,-1.460938 8.56459,-1.495178 0.69104,-0.0123 1.38209,-0.0246 2.09407,-0.03728 1.49331,-0.02579 2.98674,-0.0454 4.48021,-0.05953 3.98379,-0.04129 7.96627,-0.13973 11.94916,-0.231323 1.21339,-0.02633 1.21339,-0.02633 2.45129,-0.05319 C -102.15972,47.0759 -60.828471,35.315654 -20.117527,7.7265565 -19.356014,7.2140736 -18.5945,6.7015907 -17.80991,6.173578 -16.403712,5.2169925 -15.00867,4.2436878 -13.62827,3.2502381 -9.2596207,0.26119447 -5.3375464,-1.3630765 0,0 Z m -42.175781,26.519531 c -0.993223,0.527871 -1.986446,1.055742 -3.009766,1.59961 -1.547842,0.838213 -1.547842,0.838213 -3.126953,1.693359 C -57.399497,34.686069 -66.177114,38.860011 -76,42 c -1.189805,0.394453 -2.379609,0.788906 -3.605469,1.195312 -16.483774,5.392023 -32.632801,7.840788 -49.957031,8.339844 -1.40105,0.04308 -2.80209,0.0865 -4.20312,0.130234 -3.66261,0.113444 -7.32533,0.222408 -10.9881,0.330399 -3.74754,0.111297 -7.49495,0.226887 -11.24237,0.342102 C -163.33061,52.562765 -170.66525,52.782901 -178,53 c -0.0232,10.631873 -0.041,21.263741 -0.0518,31.895635 -0.005,4.937711 -0.0123,9.875404 -0.0236,14.813105 -0.0109,4.77217 -0.0169,9.54432 -0.0194,14.3165 -0.002,1.81349 -0.005,3.62698 -0.0109,5.44047 -0.0244,8.48291 -0.0459,16.87865 0.87091,25.32322 0.32782,3.08681 0.41334,6.16351 0.48091,9.26576 0.0313,1.25893 0.0627,2.51786 0.095,3.81494 0.0154,0.65204 0.0307,1.30409 0.0465,1.97589 0.64515,26.24059 2.54584,52.20632 6.6124,78.15448 0.14131,0.94553 0.28263,1.89105 0.42822,2.86523 0.37292,2.38994 0.79967,4.7602 1.25928,7.13477 0.23074,1.2375 0.46148,2.475 0.69922,3.75 2.40095,4.83679 6.01685,6.62552 10.61328,9.25 1.36234,0.808 1.36234,0.808 2.7522,1.63232 3.04749,1.79428 6.11358,3.55274 9.1853,5.30518 1.71091,0.98081 3.42182,1.96163 5.13251,2.94283 1.17916,0.6761 2.35857,1.35179 3.53821,2.02706 4.205,2.4078 8.40022,4.83202 12.591,7.26448 1.17258,0.67982 2.34519,1.35959 3.51782,2.03931 2.21882,1.28672 4.4368,2.5749 6.65381,3.86475 1.01457,0.58725 2.02915,1.17449 3.07446,1.77954 0.88188,0.512 1.76376,1.024 2.67237,1.55151 3.57434,1.97549 7.21802,3.7913 10.88232,5.59302 0.01982,-1.17095 0.03964,-2.3419 0.06006,-3.54834 0.07594,-4.33502 0.164676,-8.6697 0.257324,-13.00439 0.03834,-1.87787 0.07318,-3.7558 0.104492,-5.63379 0.04555,-2.69591 0.103559,-5.39131 0.164063,-8.08692 0.01155,-0.84275 0.0231,-1.68551 0.035,-2.5538 0.151316,-5.94502 0.151316,-5.94502 2.379059,-8.17276 1.801104,-0.25054 1.801104,-0.25054 4.021027,-0.25156 0.841017,-0.005 1.682035,-0.0108 2.548538,-0.0163 0.924666,0.004 1.849331,0.008 2.802017,0.0125 0.972552,-0.004 1.945105,-0.007 2.947128,-0.011 2.117663,-0.007 4.235343,-0.009 6.353016,-0.008 3.354573,9.6e-4 6.708824,-0.0119 10.063351,-0.029 9.539779,-0.0463 19.079527,-0.0709 28.619415,-0.0775 5.831477,-0.005 11.662621,-0.0293 17.493984,-0.0653 2.220655,-0.01 4.441356,-0.0121 6.662026,-0.007 3.1142102,0.007 6.2274318,-0.0103 9.3415488,-0.0328 1.3687804,0.0123 1.3687804,0.0123 2.76521299,0.0248 6.88674841,-0.0885 12.48661121,-1.62632 17.44133021,-6.60924 0.455039,-0.67805 0.910078,-1.3561 1.378906,-2.05469 0.473086,-0.6832 0.946172,-1.36641 1.433594,-2.07031 2.461939,-3.9357 2.297445,-7.35741 2.321777,-11.89112 0.0082,-0.836 0.01636,-1.672 0.02478,-2.53334 0.02487,-2.77517 0.04138,-5.55029 0.05579,-8.32554 0.008,-1.42202 0.008,-1.42202 0.01613,-2.87277 0.02674,-5.02124 0.04611,-10.04246 0.06053,-15.06376 0.01662,-5.17848 0.06137,-10.35632 0.112371,-15.53456 0.03372,-3.98755 0.04521,-7.97495 0.05086,-11.96262 0.0067,-1.90813 0.0219,-3.81624 0.04589,-5.72422 0.03175,-2.67852 0.03167,-5.35532 0.02428,-8.03397 0.0164,-0.78161 0.03281,-1.56322 0.04971,-2.36851 C 22.566522,152.56076 20.663914,148.63861 17,144 c -1.973685,-1.86039 -1.973685,-1.86039 -4.0625,-2.9375 -0.650977,-0.38027 -1.301953,-0.76055 -1.972656,-1.15234 C -1.7409533,134.02457 -16.997235,138 -31,138 c -0.33,30.36 -0.66,60.72 -1,92 -5,1 -5,1 -7.332031,-0.34375 -0.818555,-0.71156 -1.63711,-1.42313 -2.480469,-2.15625 -0.951328,-0.82242 -1.902656,-1.64484 -2.882812,-2.49219 -5.21268,-4.70459 -10.322945,-9.5199 -15.410157,-14.35937 -3.254248,-3.07952 -6.597942,-6.03822 -9.981689,-8.97412 C -72.944739,199.17307 -75.722296,196.5892 -78.5,194 c -4.277459,-3.97029 -8.588028,-7.88734 -13.011719,-11.69531 -3.451235,-3.02549 -3.451235,-3.02549 -3.734377,-5.15937 0.0028,-1.13658 0.0028,-1.13658 0.0056,-2.29611 -0.0027,-0.8694 -0.0055,-1.73881 -0.0083,-2.63456 0.01078,-1.43391 0.01078,-1.43391 0.02179,-2.89678 -2.92e-4,-1.00491 -5.84e-4,-2.00982 -8.85e-4,-3.04518 0.0014,-3.33317 0.01698,-6.66612 0.03262,-9.99925 0.0037,-2.30643 0.0066,-4.61286 0.0086,-6.91928 0.0076,-6.07951 0.0273,-12.15891 0.04941,-18.23838 0.02043,-6.20004 0.02959,-12.40009 0.03967,-18.60015 C -95.076187,100.34371 -95.042037,88.171862 -95,76 c 13.179864,-0.11669 26.359602,-0.205115 39.539881,-0.259061 6.122473,-0.02591 12.244589,-0.06097 18.366857,-0.118136 5.92638,-0.05498 11.852419,-0.08436 17.779034,-0.09719 2.242651,-0.0091 4.485287,-0.02693 6.727791,-0.05426 28.021048,-0.327447 57.365961,5.114525 78.473888,24.881187 C 75.39155,109.68748 81.478158,120.08871 85,133 c 0.247883,0.87861 0.495765,1.75722 0.75116,2.66246 2.809159,11.28569 2.722226,22.3797 2.71759,33.94691 0.0071,2.1789 0.01482,4.3578 0.02307,6.53669 0.01338,4.5487 0.01504,9.09722 0.0092,13.64593 -0.0059,5.78029 0.02468,11.55974 0.06512,17.33987 0.02607,4.49581 0.02874,8.99142 0.02511,13.48729 0.0017,2.1287 0.01115,4.25741 0.02914,6.38603 C 88.780681,248.31228 85.294085,269.32915 71,286 c -0.721875,0.99 -1.44375,1.98 -2.1875,3 C 53.601677,306.89509 26.559342,314.0268 4,316 c -4.78013944,0.19371 -9.5602939,0.25561 -14.34375,0.31641 -1.378627,0.0206 -2.757249,0.0416 -4.135864,0.063 -3.603468,0.0548 -7.206989,0.1044 -10.810547,0.15285 -3.687181,0.0505 -7.374286,0.10604 -11.061401,0.16113 C -43.567644,316.80045 -50.783789,316.902 -58,317 c 2.603599,2.71585 5.213916,4.41098 8.503906,6.26562 1.679568,0.95242 1.679568,0.95242 3.393067,1.92408 0.596453,0.33524 1.192906,0.67049 1.807434,1.0159 2.534009,1.42432 5.061931,2.8593 7.590393,4.29344 1.307696,0.74149 2.615724,1.4824 3.924072,2.22275 6.322424,3.57834 12.616861,7.20443 18.906128,10.84071 1.581317,0.91326 1.581317,0.91326 3.19458,1.84497 2.1367715,1.23406 4.2734088,2.46836 6.4099122,3.70288 3.39447448,1.96128 6.789415,3.92174 10.1845703,5.88184 1.1371948,0.65669 2.2743897,1.31339 3.4460449,1.98999 2.2282346,1.28526 4.4575336,2.56869 6.6879886,3.8501 4.529627,2.60337 9.05168,5.2113 13.51831,7.92163 0.649365,0.38873 1.298731,0.77746 1.967774,1.17797 1.616002,0.97063 3.223082,1.95607 4.829101,2.94312 3.195011,1.3632 4.337415,1.04502 7.636719,0.125 2.348647,-1.12873 2.348647,-1.12873 4.675781,-2.59766 0.898396,-0.54608 1.796792,-1.09215 2.722412,-1.65478 0.961722,-0.59732 1.923443,-1.19464 2.914307,-1.81006 1.007483,-0.62052 2.014966,-1.24104 3.052979,-1.88037 47.528331,-29.49071 88.976431,-59.9233 102.380131,-117.04419 1.1579,-4.91645 1.1579,-4.91645 2.25439,-6.01294 0.20768,-1.47397 0.36716,-2.95491 0.5,-4.4375 0.39041,-4.34332 0.39041,-4.34332 1.5,-6.5625 0.64643,-4.87581 1.01752,-9.78734 1.4375,-14.6875 0.0653,-0.75061 0.13062,-1.50121 0.19791,-2.27457 1.23394,-14.39102 1.95585,-28.7954 2.55209,-43.22543 0.0639,-1.54221 0.0639,-1.54221 0.12912,-3.11557 0.12053,-2.95484 0.23722,-5.9098 0.35135,-8.8649 0.0342,-0.8758 0.0684,-1.75159 0.1037,-2.65393 0.06,-1.63032 0.11188,-3.26096 0.15436,-4.89183 0.0492,-1.52044 0.13128,-3.04018 0.24658,-4.55704 C 169.35406,144.3484 169.35406,144.3484 169,141 c -1.72575,-2.10175 -1.72575,-2.10175 -4.33594,-3.31641 -0.94859,-0.52843 -1.89718,-1.05687 -2.87451,-1.60131 -1.0443,-0.54278 -2.0886,-1.08556 -3.16455,-1.64478 -2.21903,-1.22085 -4.43777,-2.44222 -6.65625,-3.66406 -1.15371,-0.62165 -2.30742,-1.2433 -3.49609,-1.88379 -5.51271,-2.99974 -10.9239,-6.17038 -16.34766,-9.32715 -2.18425,-1.26024 -4.36915,-2.51935 -6.55469,-3.77734 -7.60735,-4.38208 -15.21139,-8.76989 -22.81543,-13.15772 C 97.314147,99.488178 91.872685,96.350185 86.429687,93.214844 75.977938,87.192527 65.537005,81.153307 55.125,75.0625 46.447375,69.987248 37.733865,64.977554 29,60 20.226031,54.999087 11.470885,49.968169 2.75,44.875 1.7899707,44.315386 0.82994141,43.755771 -0.15917969,43.179199 -5.3500586,40.149004 -10.52531,37.09446 -15.6875,34.015625 c -1.646938,-0.976223 -1.646938,-0.976223 -3.327148,-1.972168 -2.111738,-1.252191 -4.219375,-2.51133 -6.322266,-3.77832 -0.94585,-0.559292 -1.891699,-1.118584 -2.866211,-1.694825 -0.831768,-0.497416 -1.663535,-0.994833 -2.520508,-1.507324 -4.50647,-2.104373 -7.380448,-0.736192 -11.452148,1.456543 z M -92,79 c -0.162291,12.78691 -0.286621,25.57358 -0.362685,38.36131 -0.03651,5.93812 -0.08602,11.87553 -0.165391,17.81325 -0.07614,5.73183 -0.117931,11.46298 -0.136065,17.19528 -0.01292,2.18533 -0.03815,4.37062 -0.07597,6.55565 -0.05093,3.06479 -0.05781,6.1268 -0.05457,9.19194 -0.02517,0.90056 -0.05033,1.80111 -0.07626,2.72896 0.05698,4.98909 0.722951,7.54978 4.290481,11.15262 1.174385,1.02269 2.365797,2.02648 3.58046,3.00099 0.68707,0.62648 1.374141,1.25297 2.082031,1.89844 0.571055,0.48726 1.14211,0.97453 1.730469,1.47656 4.118486,3.53819 8.104723,7.21078 12.085938,10.90234 1.90646,1.93397 1.90646,1.93397 4.101562,1.72266 0,0.66 0,1.32 0,2 1.379574,1.43467 1.379574,1.43467 3.25,2.9375 3.150102,2.66418 6.197511,5.40407 9.200684,8.23315 C -47.091074,219.29431 -41.740399,223.6298 -35,227 c 0,-30.69 0,-61.38 0,-93 45.6,1.2 45.6,1.2 54,8 5.413202,5.71394 6.300257,11.50695 6.274658,19.15747 0.0051,0.79597 0.01022,1.59193 0.01549,2.41202 0.01384,2.61884 0.01294,5.23742 0.01064,7.85629 0.0039,1.83075 0.0082,3.66149 0.01299,5.49223 0.0075,3.83392 0.0072,7.66775 0.0019,11.50167 -0.0058,4.89563 0.01112,9.79088 0.03434,14.68644 0.01479,3.78086 0.0156,7.56163 0.01249,11.34251 5.11e-4,1.80398 0.0057,3.60797 0.01581,5.41193 0.111744,22.74158 0.111744,22.74158 -7.515086,30.6489 -9.744336,7.79521 -23.660066,6.09531 -35.374954,6.09991 -2.181475,0.015 -4.362938,0.0317 -6.544388,0.0501 -5.709432,0.0435 -11.418711,0.0636 -17.12828,0.0787 -6.867713,0.0231 -13.735258,0.0755 -20.602837,0.12294 C -72.191526,256.92977 -82.595349,256.96139 -93,257 c 0,18.48 0,36.96 0,56 16.849603,0.0583 16.849603,0.0583 33.699219,0.0977 6.883658,0.0119 13.767262,0.0259 20.650879,0.0532 5.556743,0.0219 11.113428,0.0337 16.670211,0.0389 2.108011,0.004 4.21602,0.0108 6.324006,0.0217 C 12.254303,313.34977 41.799093,310.39654 63,290 c 0.825,-0.76313 1.65,-1.52625 2.5,-2.3125 17.543062,-18.85879 20.145192,-40.60986 19.996094,-65.35547 1.55e-4,-2.13552 0.0017,-4.27105 0.0044,-6.40657 0.0014,-4.4433 -0.011,-8.88627 -0.03395,-13.32951 -0.02843,-5.65475 -0.02562,-11.30897 -0.01291,-16.96376 0.007,-4.39874 -8.8e-4,-8.79736 -0.01326,-13.19609 -0.0045,-2.0837 -0.0049,-4.16742 -9.35e-4,-6.25112 0.01477,-14.61463 -0.348674,-28.98344 -6.626951,-42.49748 -0.300432,-0.66387 -0.600864,-1.32773 -0.9104,-2.01172 C 75.090856,115.72784 71.489845,110.81055 67,106 66.373516,105.29488 65.747031,104.58977 65.101562,103.86328 50.027101,87.712072 26.211799,79.867244 4.535471,78.888748 c -6.852194,-0.16817 -13.705348,-0.118549 -20.558908,-0.08406 -2.199594,0.0037 -4.39919,0.0066 -6.598786,0.0086 -5.743955,0.0076 -11.487806,0.02717 -17.23172,0.04941 -5.8794,0.02059 -11.758818,0.02962 -17.638244,0.03967 C -68.994837,78.923689 -80.49741,78.957752 -92,79 Z"
     fill="#5bcef9"
     transform="translate(240,34)"
     id="path3"
     style="display:inline" />
  <path
     d="M 0,0 C 2.982516,1.9173317 5.9324977,3.8602842 8.8359375,5.8945312 38.751017,26.266104 72.945133,43.013599 109.34766,46.617187 c 1.27155,0.126092 1.27155,0.126092 2.56878,0.254731 11.73838,1.089565 23.51698,1.4258 35.2945,1.835113 8.0025,0.28875 16.005,0.5775 24.25,0.875 0,28.71 0,57.419999 0,86.999999 -7.90889,-3.95444 -15.54581,-7.94395 -23.125,-12.4375 -2.10903,-1.24018 -4.21841,-2.47974 -6.32813,-3.71875 -1.61745,-0.95133 -1.61745,-0.95133 -3.26758,-1.92187 -5.36924,-3.14672 -10.76137,-6.25346 -16.15429,-9.35938 -1.07911,-0.62189 -2.15822,-1.24378 -3.27002,-1.88452 -2.19081,-1.26248 -4.38173,-2.52476 -6.57276,-3.78687 -5.42882,-3.12791 -10.85542,-6.259693 -16.282223,-9.391109 -2.166655,-1.250019 -4.333322,-2.500019 -6.5,-3.75 -21.666666,-12.5 -43.333333,-25 -65,-37.5 C 23.88731,52.212637 22.813682,51.593242 21.70752,50.955078 19.552224,49.711626 17.396951,48.468137 15.241699,47.224609 10.237561,44.337403 5.2332323,41.450527 0.22808838,38.565063 -1.5224749,37.55584 -3.2729666,36.546493 -5.0234375,35.537109 -7.2029841,34.280355 -9.3826608,33.023825 -11.5625,31.767578 c -7.005175,-4.039711 -13.995148,-8.104915 -20.976562,-12.185547 2.960206,-2.427886 5.892798,-4.658338 9.179687,-6.621093 1.146621,-0.69126 1.146621,-0.69126 2.316406,-1.396485 0.785039,-0.468574 1.570078,-0.937148 2.378907,-1.419922 1.561493,-0.9335297 3.121412,-1.8697001 4.679687,-2.8085935 0.75249,-0.4510107 1.50498,-0.9020215 2.280273,-1.3666992 C -9.6118477,4.628667 -7.7209459,3.1589263 -5.78125,1.609375 -2.5390625,-0.41796875 -2.5390625,-0.41796875 0,0 Z"
     fill="#5bcef9"
     transform="translate(237.53906,38.417969)"
     id="path6"
     style="display:inline" />
  <path
     d="m 0,0 c 2.8674511,-0.06978263 5.7331794,-0.1205615 8.6010742,-0.16064453 0.8050347,-0.0215364 1.6100688,-0.0430728 2.4394988,-0.0652618 C 18.648738,-0.30552361 23.761239,2.0083539 30.125,6.125 c 1.560894,0.9409351 1.560894,0.9409351 3.15332,1.9008789 2.168738,1.3088786 4.328303,2.6330741 6.478516,3.9721681 4.252603,2.625064 8.578978,5.111408 12.910644,7.603027 7.646155,4.400203 7.646155,4.400203 11.261597,6.637635 3.050487,1.835964 3.050487,1.835964 6.421845,3.151947 8.678483,4.050608 8.678483,4.050608 10.367843,8.504192 1.126671,5.823569 0.740007,11.742106 0.523422,17.636402 -0.01961,1.919906 -0.03243,3.839892 -0.03879,5.759888 -0.03023,5.042523 -0.131984,10.080747 -0.255219,15.121765 -0.191206,8.065901 -0.299978,16.131886 -0.358303,24.199757 -0.03461,2.80897 -0.115994,5.61383 -0.201969,8.42164 -0.508872,10.20399 -0.508872,10.20399 3.950714,19.00257 C 86.144727,129.6523 86.144727,129.6523 88,131 c 1.016977,0.97231 2.026532,1.95246 3.027344,2.94141 0.960351,0.86496 1.920703,1.72992 2.910156,2.62109 0.520862,0.47123 1.041724,0.94247 1.578369,1.42798 3.385384,3.05433 6.815281,6.05553 10.261471,9.04077 5.15508,4.56619 10.17591,9.28358 15.22266,13.96875 -0.66,0.33 -1.32,0.66 -2,1 -2.23291,-1.04126 -2.23291,-1.04126 -5.03906,-2.69141 -1.56428,-0.91169 -1.56428,-0.91169 -3.16016,-1.84179 -1.13051,-0.66967 -2.26101,-1.33934 -3.42578,-2.0293 -1.18054,-0.69152 -2.36154,-1.38226 -3.54297,-2.07227 -2.43254,-1.42233 -4.862407,-2.84908 -7.290038,-4.27978 -4.201864,-2.47591 -8.415136,-4.93211 -12.628906,-7.3877 -1.958253,-1.14127 -3.915926,-2.28354 -5.873047,-3.42675 -12.782486,-7.46586 -25.615532,-14.84424 -38.443848,-22.23096 -3.386578,-1.95024 -6.772637,-3.90139 -10.158691,-5.85254 -0.996929,-0.57355 -1.993857,-1.1471 -3.020996,-1.73804 -1.957723,-1.1282 -3.903768,-2.27695 -5.836243,-3.44787 -2.555335,-1.49707 -5.131789,-2.67642 -7.868927,-3.80385 C 1.4179963,96.18692 1.4179963,96.18692 -0.94946861,90.866087 -2.411233,84.547921 -1.9504255,78.108303 -1.6601562,71.679687 c 0.031747,-2.070689 0.055927,-4.141508 0.072891,-6.212371 0.064616,-5.425392 0.2312744,-10.842923 0.4199676,-16.265229 0.17458977,-5.542842 0.2516883,-11.086969 0.33721928,-16.631775 C -0.64829015,21.710105 -0.35856639,10.855709 0,0 Z"
     fill="#fefefe"
     transform="translate(63,88)"
     id="path7"
     style="display:inline" />
  <path
     d="m 0,0 c 3.5443443,1.344557 6.8079919,2.9122834 10.113281,4.765625 1.483067,0.8299951 1.483067,0.8299951 2.996094,1.6767578 1.057031,0.5965137 2.114062,1.1930274 3.203125,1.8076172 1.653223,0.9295752 1.653223,0.9295752 3.339844,1.87793 9.641818,5.438622 19.22041,10.982881 28.757812,16.602539 3.587776,2.111655 7.195151,4.1765 10.835938,6.195312 0.797929,0.448916 1.595859,0.897832 2.417968,1.360352 1.467766,0.824042 2.942658,1.635572 4.425782,2.43164 4.714896,2.673518 4.714896,2.673518 5.656494,5.608887 0.270766,2.853597 -0.01195,4.859755 -0.715088,7.630371 -0.23759,0.939646 -0.475181,1.879292 -0.719971,2.847412 C 70.043557,53.797102 69.775835,54.789761 69.5,55.8125 69.087782,57.354662 69.087782,57.354662 68.667236,58.927979 66.231868,67.716302 63.151222,75.888417 59,84 58.655659,84.676436 58.311318,85.352871 57.956543,86.049805 53.208252,95.230262 47.867353,103.23001 41,111 c -0.71543,0.89332 -1.430859,1.78664 -2.167969,2.70703 -0.68707,0.83918 -1.37414,1.67836 -2.082031,2.54297 -0.603281,0.74766 -1.206562,1.49531 -1.828125,2.26563 C 33,120 33,120 30.719727,119.77759 27.661954,118.90335 25.303648,117.65567 22.5625,116.04297 21.511753,115.4301 20.461006,114.81723 19.378418,114.18579 18.26354,113.52635 17.148662,112.86692 16,112.1875 14.844369,111.51086 13.688277,110.835 12.531738,110.15991 10.174987,108.78386 7.8199383,107.40496 5.4658203,106.02441 0.29237557,102.99614 -4.9161408,100.02931 -10.125,97.0625 -11.856792,96.074256 -13.588565,95.085978 -15.320313,94.097656 -16.546826,93.398352 -17.773368,92.699097 -19,92 c 0.759407,-3.476595 1.82401,-5.193248 4.1875,-7.875 C -0.98351506,66.753755 -0.38207489,44.622768 -0.25,23.5 -0.2217798,21.212218 -0.1918442,18.924456 -0.1601562,16.636719 -0.08701918,11.091226 -0.03495857,5.5458578 0,0 Z"
     fill="#fefefe"
     transform="translate(329,232)"
     id="path8"
     style="display:inline" />
  <path
     d="m 0,0 c 3.5877744,1.7324062 6.7893176,3.926152 10.0625,6.1875 1.953985,1.293676 3.911118,2.5826066 5.871094,3.867188 1.00144,0.658388 2.002881,1.316777 3.034668,1.995117 39.880292,25.653388 79.599985,35.175022 126.629398,36.18457 0.80085,0.01819 1.6017,0.03639 2.42682,0.05513 3.93026,0.08725 7.85939,0.156423 11.79046,0.193649 1.43018,0.02477 2.86036,0.04989 4.29053,0.07544 1.25965,0.01345 2.51931,0.02691 3.81714,0.04077 C 171,49 171,49 172.67006,50.053772 c 2.03359,2.975945 1.73064,6.008184 1.68639,9.486511 0.002,0.768453 0.004,1.536905 0.006,2.328644 0.003,2.560855 -0.0156,5.121074 -0.0345,7.681854 -0.003,1.810398 -0.005,3.620798 -0.006,5.431198 -0.005,3.824375 -0.0191,7.648542 -0.0412,11.472855 -0.0276,4.77868 -0.0391,9.557194 -0.0438,14.335946 -0.0208,18.99648 -0.19999,37.98464 -0.70228,56.97484 -0.02,0.76315 -0.04,1.5263 -0.0606,2.31258 -1.6362,60.94784 -6.41706,121.68282 -52.43554,166.16789 C 115.34962,331.61285 109.31913,336.40168 103,341 c -0.64518,0.47357 -1.29035,0.94714 -1.95508,1.43506 -23.78586,17.38153 -49.479989,32.04503 -74.957518,46.76855 -3.15954,1.83836 -6.30149,3.70454 -9.442871,5.57373 -2.047796,1.19987 -4.09596,2.39911 -6.144531,3.59766 -0.9369067,0.56582 -1.8738135,1.13164 -2.8391113,1.7146 -8.51258567,4.92907 -8.51258567,4.92907 -13.4665528,4.51977 -5.3517309,-1.48619 -10.0607339,-4.50931 -14.8193359,-7.29687 -1.203348,-0.68939 -2.407462,-1.37744 -3.612305,-2.06421 -3.033386,-1.73543 -6.053932,-3.49185 -9.069702,-5.25769 -1.57312,-0.92046 -3.149057,-1.8361 -4.72522,-2.75134 -5.444996,-3.16289 -10.862433,-6.36878 -16.259765,-9.61231 -1.832138,-1.10073 -3.66618,-2.1983 -5.501953,-3.29297 -25.143703,-14.99799 -50.639305,-30.46758 -71.758305,-50.9375 -1.35851,-1.3104 -2.7403,-2.59657 -4.12353,-3.88086 -42.83618,-40.77098 -44.41531,-106.60119 -45.85938,-161.75 -0.0212,-0.80004 -0.0423,-1.60008 -0.0641,-2.42437 -0.49418,-19.11797 -0.62191,-38.23537 -0.64095,-57.359072 -0.006,-4.819041 -0.0301,-9.637819 -0.058,-14.456775 -0.0185,-3.761663 -0.0238,-7.523259 -0.0254,-11.284965 -0.003,-1.78104 -0.011,-3.56208 -0.0242,-5.343074 -0.017,-2.452584 -0.0152,-4.904463 -0.009,-7.357081 -0.009,-0.724327 -0.0184,-1.448654 -0.0279,-2.194931 0.0242,-2.887263 0.0585,-4.868524 1.71431,-7.29158 2.7463,-1.732859 5.35893,-1.460938 8.56459,-1.495178 0.69104,-0.0123 1.38209,-0.0246 2.09407,-0.03728 1.49331,-0.02579 2.98674,-0.0454 4.48021,-0.05953 3.98379,-0.04129 7.96627,-0.13973 11.94916,-0.231323 1.21339,-0.02633 1.21339,-0.02633 2.45129,-0.05319 C -102.15972,47.0759 -60.828471,35.315654 -20.117527,7.7265565 -19.356014,7.2140736 -18.5945,6.7015907 -17.80991,6.173578 -16.403712,5.2169925 -15.00867,4.2436878 -13.62827,3.2502381 -9.2596207,0.26119447 -5.3375464,-1.3630765 0,0 Z m -11.125,8.125 c -14.438224,9.803754 -29.578795,18.514886 -45.3125,26.0625 -0.928125,0.445291 -1.85625,0.890581 -2.8125,1.349365 C -64.734008,38.103752 -70.221849,40.202993 -76,42 c -1.284392,0.425464 -2.568267,0.852491 -3.851562,1.28125 -16.428555,5.306117 -32.461618,7.757008 -49.710938,8.253906 -1.40105,0.04308 -2.80209,0.0865 -4.20312,0.130234 -3.66261,0.113444 -7.32533,0.222408 -10.9881,0.330399 -3.74754,0.111297 -7.49495,0.226887 -11.24237,0.342102 C -163.33061,52.562765 -170.66525,52.782901 -178,53 c -0.0232,10.631873 -0.041,21.263741 -0.0518,31.895635 -0.005,4.937711 -0.0123,9.875404 -0.0236,14.813105 -0.0109,4.77217 -0.0169,9.54432 -0.0194,14.3165 -0.002,1.81349 -0.005,3.62698 -0.0109,5.44047 -0.0244,8.48291 -0.0459,16.87865 0.87091,25.32322 0.32782,3.08681 0.41334,6.16351 0.48091,9.26576 0.0313,1.25893 0.0627,2.51786 0.095,3.81494 0.0154,0.65204 0.0307,1.30409 0.0465,1.97589 1.51257,61.52226 6.8131,119.12822 52.73349,163.61542 6.85897,6.48127 14.13871,12.15464 21.87891,17.53906 1.29986,0.90516 1.29986,0.90516 2.625977,1.82861 22.351722,15.43483 45.740039,29.24698 69.327148,42.69092 3.943851,2.25246 7.845371,4.55816 11.71875,6.92969 0.873259,0.52803 1.746519,1.05606 2.64624,1.6001 1.612756,0.97835 3.217165,1.97066 4.811035,2.97949 0.706326,0.42491 1.4126518,0.84981 2.1403812,1.2876 0.906493,0.56376 0.906493,0.56376 1.8312989,1.13891 5.0032122,1.43491 11.4240039,-3.85716 15.6677246,-6.20166 1.1488769,-0.64058 2.2977543,-1.28116 3.4814453,-1.94116 0.594137,-0.33063 1.188274,-0.66127 1.800415,-1.00192 11.79047,-6.56925 23.384263,-13.44519 34.911987,-20.46537 3.043696,-1.84891 6.096092,-3.68265 9.150879,-5.51318 C 69.343692,357.58428 80.376984,350.67385 91,343 c 0.660483,-0.47647 1.320967,-0.95294 2.001465,-1.44385 33.615365,-24.40149 57.068205,-52.30845 66.744145,-93.54321 1.1579,-4.91645 1.1579,-4.91645 2.25439,-6.01294 0.20768,-1.47397 0.36716,-2.95491 0.5,-4.4375 0.39041,-4.34332 0.39041,-4.34332 1.5,-6.5625 2.48074,-18.7115 3.27971,-37.77364 4.08984,-56.61719 0.0432,-0.9956 0.0864,-1.9912 0.13094,-3.01697 0.98211,-23.21072 1.01705,-46.40418 0.91655,-69.63146 -0.0211,-5.41991 -0.0297,-10.839836 -0.0397,-16.259771 C 169.07669,74.98302 169.04291,64.491521 169,54 c -0.59452,-0.02061 -1.18904,-0.04123 -1.80157,-0.06247 -6.29675,-0.21963 -12.59311,-0.448451 -18.88935,-0.68216 -2.33683,-0.0856 -4.67374,-0.169003 -7.01074,-0.25 C 102.46676,51.654853 102.46676,51.654853 85.5625,47.375 84.518118,47.115576 83.473735,46.856152 82.397705,46.588867 52.379924,38.83676 23.892474,23.512621 -1.034668,5.2741699 -5.1548684,2.6029493 -7.6294604,5.6876876 -11.125,8.125 Z"
     fill="#1f2224"
     transform="translate(240,34)"
     id="path9"
     style="display:inline" />
  <path
     d="m 0,0 c 36,0 36,0 46,4 5.864531,5.8645307 7.2991,10.163966 7.322266,18.297607 0.0099,0.834689 0.01986,1.669377 0.03009,2.529358 0.02919,2.759535 0.04284,5.51884 0.05389,8.278504 0.01151,1.923284 0.02302,3.846568 0.03455,5.769851 0.02101,4.034166 0.0327,8.068251 0.03967,12.102463 0.01095,5.153834 0.05897,10.306607 0.115944,15.460109 0.03737,3.974741 0.04767,7.94923 0.05073,11.924132 0.006,1.898933 0.02201,3.797862 0.04837,5.696621 0.230844,17.911325 0.230844,17.911325 -5.064285,24.411275 C 45.827575,111.09972 43.623376,112.57653 40,114 c -4.887764,-0.34383 -8.266455,-2.00928 -12.464844,-4.45703 -0.894597,-0.51635 -0.894597,-0.51635 -1.807266,-1.04314 -1.893591,-1.09555 -3.779498,-2.20359 -5.66539,-3.31233 -1.261876,-0.73327 -2.524242,-1.4657 -3.787109,-2.19727 -2.338336,-1.35591 -4.672985,-2.71748 -7.0056156,-4.083248 C 5.8584238,96.917431 2.428806,94.959318 -1,93 -0.67,62.31 -0.34,31.62 0,0 Z"
     fill="#fdfdfd"
     transform="translate(209,172)"
     id="path10"
     style="display:inline" />
  <path
     d="m 0,0 c 0.97917892,-0.00817749 1.9583579,-0.01635498 2.9672089,-0.02478027 3.2652373,-0.02495199 6.5304302,-0.04141232 9.7957301,-0.05578614 1.678516,-0.0079855 1.678516,-0.0079855 3.39094,-0.01613235 5.945119,-0.02679859 11.890217,-0.04613505 17.835379,-0.0605278 4.887239,-0.0132352 9.77405,-0.0408824 14.661133,-0.0820313 5.921074,-0.0498533 11.841765,-0.0741566 17.76304,-0.0811958 2.239848,-0.006639 4.479691,-0.0216625 6.719418,-0.0458908 C 101.4254,-0.65444691 130.70782,4.9203749 151.93408,24.90332 c 9.76847,9.60921 16.12303,19.975854 19.75464,33.289551 0.24788,0.878612 0.49577,1.757224 0.75116,2.66246 2.80916,11.28569 2.72223,22.379698 2.71759,33.946915 0.007,2.178896 0.0148,4.35779 0.0231,6.536684 0.0134,4.5487 0.0151,9.09722 0.009,13.64593 -0.006,5.7803 0.0247,11.55974 0.0651,17.33987 0.0261,4.49581 0.0287,8.99142 0.0251,13.48729 0.002,2.1287 0.0111,4.25741 0.0291,6.38603 0.16003,21.26651 -3.29748,42.38158 -17.62035,58.99482 -0.44859,0.59168 -0.89719,1.18336 -1.35937,1.79297 -14.56845,18.72474 -39.83444,25.46265 -62.245533,28.73309 -4.754131,0.58231 -9.466995,0.62902 -14.251786,0.63507 -0.952199,0.005 -1.904398,0.01 -2.885452,0.015 -3.123721,0.0145 -6.247391,0.0214 -9.37114,0.0269 -2.178563,0.006 -4.357126,0.0115 -6.53569,0.0173 -4.553291,0.0105 -9.106565,0.0163 -13.659866,0.0198 -5.842243,0.006 -11.684255,0.0296 -17.526426,0.058 -4.492599,0.0186 -8.985142,0.0238 -13.477776,0.0254 -2.155044,0.003 -4.310086,0.0111 -6.4650918,0.0242 -3.0042327,0.017 -6.0078909,0.0152 -9.0121517,0.009 -0.89301819,0.009 -1.78603638,0.0184 -2.7061157,0.0279 -1.2257247,-0.008 -1.2257247,-0.008 -2.4762116,-0.0169 -0.7095297,0.001 -1.4190595,0.003 -2.1500902,0.004 -2.4617068,-0.48772 -3.3537342,-1.41261 -4.877299,-3.37194 -0.380951,-2.54248 -0.380951,-2.54248 -0.388184,-5.61719 -0.0095,-1.15129 -0.01891,-2.30258 -0.02866,-3.48877 0.0061,-1.24378 0.01215,-2.48756 0.0184,-3.76904 -0.0029,-1.27601 -0.0057,-2.55202 -0.0087,-3.8667 -0.002,-2.70034 0.002,-5.39987 0.01602,-8.1001 0.01709,-3.46039 0.0073,-6.92009 -0.01072,-10.38046 -0.01345,-3.30094 -0.004,-6.60179 0.0034,-9.90274 -0.0061,-1.24378 -0.01215,-2.48757 -0.0184,-3.76904 0.01418,-1.72694 0.01418,-1.72694 0.02866,-3.48877 0.0024,-1.01465 0.0048,-2.02931 0.0072,-3.07471 0.450833,-3.00888 1.028741,-3.69282 3.3809507,-5.54248 1.9241514,-0.37359 1.9241514,-0.37359 4.1412811,-0.37181 1.2635884,-0.0101 1.2635884,-0.0101 2.5527039,-0.0205 0.92107039,0.008 1.8421408,0.0154 2.7911224,0.0234 0.9726984,-0.004 1.9453968,-0.008 2.9475708,-0.0114 2.1149162,-0.006 4.2298614,-0.006 6.3447781,1.9e-4 3.350527,0.009 6.700492,-0.001 10.050989,-0.0166 9.526984,-0.0402 19.053925,-0.0413 28.580979,-0.0391 5.826124,5e-5 11.651948,-0.0192 17.477991,-0.0493 3.294904,-0.0108 6.589229,0.001 9.884115,0.0138 2.032136,-0.009 4.064267,-0.019 6.09639,-0.0304 1.366423,0.0146 1.366423,0.0146 2.760452,0.0295 6.97405,-0.078 11.99649,-1.80204 17.4386,-6.19712 5.91149,-7.91043 4.78007,-17.55433 4.69475,-26.95961 0.001,-1.91853 0.005,-3.83707 0.0102,-5.7556 0.004,-4.00878 -0.0124,-8.01675 -0.0446,-12.0254 -0.0398,-5.12355 -0.0305,-10.24558 -0.006,-15.36917 0.0142,-3.95763 0.004,-7.91491 -0.0135,-11.872513 -0.006,-1.888527 -0.005,-3.777091 0.004,-5.665608 0.008,-2.644498 -0.0164,-5.286822 -0.0492,-7.931089 0.009,-0.770613 0.0171,-1.541225 0.0259,-2.33519 -0.12364,-5.806562 -1.9324,-9.96626 -5.68875,-14.416519 -5.993757,-4.65412 -11.935942,-5.156657 -19.265627,-5.316406 -1.190097,-0.03117 -1.190097,-0.03117 -2.404236,-0.06297 -2.526628,-0.06522 -5.053357,-0.124252 -7.580139,-0.183121 -1.716156,-0.04321 -3.432303,-0.08683 -5.148438,-0.130859 -4.200418,-0.106894 -8.400937,-0.208238 -12.601562,-0.306641 0.01,1.722213 0.01,1.722213 0.02019,3.479218 0.06072,10.800997 0.105741,21.60196 0.135249,32.403089 0.01568,5.553459 0.03696,11.106789 0.07088,16.660169 0.03251,5.35569 0.05052,10.71124 0.05831,16.06702 0.0056,2.04703 0.01641,4.09405 0.03256,6.14102 0.02166,2.8592 0.02478,5.71785 0.02339,8.57712 0.01079,0.85308 0.02157,1.70615 0.03268,2.58508 -0.0125,2.3541 -0.0125,2.3541 -0.37326,6.08728 -3,2 -3,2 -5.230469,2.03906 -4.220365,-1.58338 -6.904179,-4.53722 -10.082031,-7.66406 -1.345556,-1.2912 -2.691901,-2.58157 -4.039063,-3.87109 -0.955679,-0.92209 -0.955679,-0.92209 -1.930664,-1.8628 -1.920571,-1.83486 -3.890132,-3.59831 -5.905273,-5.32861 -3.288548,-2.832 -6.493766,-5.74954 -9.6875,-8.6875 -5.341295,-4.91299 -10.7222069,-9.77964 -16.1250003,-14.625 -1.83382932,-1.64528 -3.6671711,-3.2911 -5.5,-4.9375 -1.2220313,-1.09635 -1.2220313,-1.09635 -2.46875,-2.21484 -4.0035717,-3.64171 -4.0035717,-3.64171 -4.2801387,-5.69955 5.44e-4,-0.75642 0.0011,-1.51283 0.0017,-2.29217 -0.0042,-0.867956 -0.0084,-1.735918 -0.01271,-2.630182 0.0056,-0.954365 0.01124,-1.908729 0.01703,-2.892014 -0.0019,-1.003303 -0.0038,-2.006607 -0.0058,-3.040313 -0.0037,-3.328357 0.007,-6.656496 0.0182,-9.984833 0.0012,-2.304031 0.0016,-4.608063 0.0014,-6.912094 0.0016,-4.832963 0.0099,-9.665851 0.02327,-14.498795 0.017,-6.21022 0.02081,-12.42036 0.02005,-18.630601 2.71e-4,-4.75846 0.0057,-9.516903 0.013,-14.275357 0.0032,-2.290654 0.0052,-4.581311 0.0059,-6.871967 0.0022,-3.194341 0.01089,-6.388593 0.0216,-9.582915 -6.8e-4,-1.4345827 -6.8e-4,-1.4345827 -0.0014,-2.8981473 0.0043,-0.8651422 0.0085,-1.7302844 0.01292,-2.621643 0.0017,-0.756038 0.0034,-1.512076 0.0051,-2.2910242 C -10.088559,-1.7956541 -3.5557145,0.01621199 0,0 Z m -6.3112793,4.1928711 c -0.1622908,12.7869099 -0.286621,25.5735749 -0.3626852,38.3613059 -0.03651,5.938122 -0.086021,11.875539 -0.165391,17.813255 -0.076137,5.73183 -0.1179309,11.462983 -0.1360645,17.19528 -0.01292,2.185326 -0.038151,4.370615 -0.07597,6.555652 -0.050929,3.064791 -0.057809,6.126792 -0.054567,9.191939 -0.025167,0.900556 -0.050334,1.801112 -0.076263,2.728958 0.056975,4.989089 0.7229511,7.549779 4.2904816,11.152619 1.1743845,1.02269 2.3657965,2.02648 3.5804596,3.00099 0.6870703,0.62649 1.3741406,1.25297 2.0820313,1.89844 0.5710546,0.48726 1.1421093,0.97453 1.7304687,1.47656 4.1184855,3.53819 8.1047238,7.21079 12.0859368,10.90234 1.906461,1.93398 1.906461,1.93398 4.101563,1.72266 0,0.66 0,1.32 0,2 1.379575,1.43467 1.379575,1.43467 3.25,2.9375 3.150102,2.66418 6.19751,5.40407 9.200683,8.23316 5.458243,5.12366 10.808917,9.45914 17.549317,12.82934 0,-30.69 0,-61.379999 0,-92.999999 45.600001,1.2 45.600001,1.2 53.999999,8 5.4132,5.713936 6.30026,11.506954 6.27466,19.157471 0.005,0.795966 0.0102,1.591932 0.0155,2.412018 0.0138,2.618841 0.0129,5.237418 0.0106,7.856292 0.004,1.830746 0.008,3.661488 0.013,5.492238 0.007,3.83391 0.007,7.66774 0.002,11.50166 -0.006,4.89563 0.0111,9.79088 0.0344,14.68644 0.0148,3.78086 0.0156,7.56163 0.0125,11.34251 5.1e-4,1.80398 0.006,3.60797 0.0158,5.41193 0.11175,22.74158 0.11175,22.74158 -7.51508,30.6489 -9.744339,7.79522 -23.660069,6.09531 -35.374957,6.09992 -2.181476,0.015 -4.362939,0.0317 -6.544388,0.0501 -5.709432,0.0435 -11.418712,0.0636 -17.128281,0.0787 -6.867713,0.0231 -13.735258,0.0755 -20.602837,0.12294 -10.404301,0.0686 -20.8081244,0.10023 -31.2127758,0.13884 0,18.48 0,36.96 0,56 16.8496028,0.0583 16.8496028,0.0583 33.6992178,0.0977 6.883659,0.0119 13.767263,0.0259 20.650879,0.0532 5.556744,0.0219 11.113429,0.0337 16.670212,0.0389 2.108011,0.004 4.216019,0.0108 6.324005,0.0217 27.909988,0.13831 57.454775,-2.81492 78.655685,-23.21146 0.825,-0.76312 1.65,-1.52625 2.5,-2.3125 17.54306,-18.85879 20.14519,-40.60986 19.99609,-65.35547 1.6e-4,-2.13552 0.002,-4.27105 0.004,-6.40657 0.001,-4.4433 -0.011,-8.88627 -0.034,-13.32951 -0.0284,-5.65475 -0.0256,-11.30897 -0.0129,-16.96376 0.007,-4.39874 -8.8e-4,-8.79736 -0.0132,-13.196087 -0.004,-2.083704 -0.005,-4.167421 -9.4e-4,-6.251125 0.0148,-14.614627 -0.34867,-28.983436 -6.62695,-42.497477 -0.30043,-0.663867 -0.60086,-1.327734 -0.9104,-2.011719 -2.81124,-5.947945 -6.41225,-10.865233 -10.9021,-15.675781 -0.62648,-0.705117 -1.25297,-1.410234 -1.89844,-2.136719 C 135.71582,12.904943 111.90052,5.060115 90.224192,4.0816193 83.371998,3.9134495 76.518844,3.9630697 69.665283,3.9975586 c -2.199594,0.00374 -4.399189,0.00658 -6.598785,0.00858 -5.743955,0.00758 -11.487806,0.027174 -17.23172,0.049408 -5.879401,0.020587 -11.758818,0.029621 -17.638245,0.039673 -11.502649,0.021345 -23.005222,0.055409 -34.5078123,0.097656 z"
     fill="#242223"
     transform="translate(154.31128,108.80713)"
     id="path11"
     style="display:inline" />
  <path
     d="M 0,0 C 22.528927,-0.88348734 22.528927,-0.88348734 29.636719,5.4609375 33.855233,10.223386 35.286361,13.700054 35,20 29.753929,18.511695 25.495487,16.115501 20.875,13.3125 19.373896,12.413732 17.872592,11.515297 16.371094,10.617188 15.634878,10.174717 14.898662,9.7322461 14.140137,9.2763672 10.134849,6.8876332 6.0779867,4.5881132 2.0273438,2.2773438 1.3583203,1.8558203 0.68929687,1.4342969 0,1 0,0.67 0,0.34 0,0 Z"
     fill="#f0a8b6"
     transform="translate(227,172)"
     id="path12"
     style="display:inline" />
</svg>
